<svg xmlns="http://www.w3.org/2000/svg" viewBox="0 0 1336.59 1807.58"><defs><style>.cls-1{isolation:isolate;}.cls-2,.cls-4{opacity:0.51;}.cls-2{mix-blend-mode:screen;}.cls-3{fill:#231f20;}</style></defs><title>github-site-BG</title><g class="cls-1"><g id="Layer_1" data-name="Layer 1"><g class="cls-2"><polygon class="cls-3" points="1228.32 900.35 1227.08 837.7 1243.13 900.35 1243.82 900.35 1227 834.8 1226.36 834.89 1227.67 900.35 1228.32 900.35"/><polygon class="cls-3" points="1210.04 900.35 1226.41 837.27 1227.67 900.35 1228.32 900.35 1227.02 834.88 1226.37 834.8 1209.36 900.35 1210.04 900.35"/><polygon class="cls-3" points="998.62 900.35 1039.79 884.85 1036.03 900.35 1036.72 900.35 1040.57 884.39 1040.71 883.79 996.74 900.35 998.62 900.35"/><polygon class="cls-3" points="1050.8 900.35 1041.12 885.09 1073.75 900.35 1075.31 900.35 1039.37 883.54 1050.02 900.35 1050.8 900.35"/><path class="cls-3" d="M1040.81,884.89l-228.3-90.54L813,794,966.39,679.54l.15.42Zm-227-90.72,225.85,89.57L966.07,680.6Z"/><path class="cls-3" d="M1040.2,885.14,965.77,679.76l.45,0,182.59-6.1-.26.5ZM966.69,680.39,1040.3,883.5l107.41-209.16Z"/><polygon class="cls-3" points="851.94 900.35 813.74 794.84 1039.34 884.31 996.74 900.35 998.61 900.35 1041.16 884.32 813.3 793.96 812.62 793.7 851.23 900.35 851.94 900.35"/><polygon class="cls-3" points="721.05 900.35 742.09 752.2 812.71 794.37 742.04 900.35 742.83 900.35 813.64 794.16 741.58 751.13 720.39 900.35 721.05 900.35"/><path class="cls-3" d="M965.25,680.43l149.37-120.38.14.47,33.94,113.79h-.44Zm149-119.25L967.2,679.71l180.62-6Z"/><polygon class="cls-3" points="321.94 900.35 352.85 748.68 442.15 900.35 442.91 900.35 352.55 746.87 321.27 900.35 321.94 900.35"/><path class="cls-3" d="M546.48,891.77l-.6-.2,20.71-218.48.47.35L645,731l-.16.26Zm20.66-217.46L546.67,890.22l97.41-159.09Z"/><path class="cls-3" d="M546.48,892.21l-.47-.35L352,747.67l215.24-74.45,0,.51ZM353.39,747.88,545.93,891l20.56-216.81Z"/><path class="cls-3" d="M813.79,795l-72.3-43.16v-.21l11-127.25.63-.09Zm-71.62-43.52,70.39,42L753,626Z"/><path class="cls-3" d="M352.08,748.34l48.44-106,167.62,31.27ZM400.9,643.08,353.31,747.22,565.58,673.8Z"/><path class="cls-3" d="M917.71,640.84,752.92,474.69,865.48,429l.1.37ZM754.08,474.92,916.5,638.69,865,429.9Z"/><path class="cls-3" d="M917,640.57l-.17-.72L864.85,429.16l208.53-23.28-.39.59ZM865.66,429.73,917.25,639l154.8-232.28Z"/><path class="cls-3" d="M237,865.21l-67.2-230.45,183.41,113-.29.29Zm-66.09-229L237.34,864,352.17,747.84Z"/><path class="cls-3" d="M567,674.89,520.84,569.17l64.69-23.45-.07.54ZM521.72,569.55l45,103,18-125.8Z"/><path class="cls-3" d="M170.26,636.46l-19.84-86.53.14-.14L257.65,454l.51.39Zm-19.12-86.31,19.34,84.35,86.37-178.86Z"/><path class="cls-3" d="M864.66,429.85,967.13,243.51l.3.46,105.86,162.58ZM967.18,244.79,865.85,429.05l206.31-23Z"/><path class="cls-3" d="M401.38,643.06l-.69,0-230.84-7.24.23-.46L257.8,453.66Zm-230.49-7.89L400,642.36,257.93,454.91Z"/><path class="cls-3" d="M865.51,430,714.45,345.59l.53-.28L890.63,252l-.1.64ZM715.82,345.6,865,428.93l24.79-175.7Z"/><polygon class="cls-3" points="1336.59 897.74 1227.75 704.45 1336.59 732.88 1336.59 732.21 1226.42 703.41 1336.59 899.07 1336.59 897.74"/><polygon class="cls-3" points="1336.59 668.18 1227.85 703.34 1336.59 530.53 1336.59 529.29 1226.81 703.76 1226.33 704.52 1336.59 668.88 1336.59 668.18"/><path class="cls-3" d="M886,837.52l.1-.58,51.24-281.71L1227.88,704Zm51.83-281.3-51,280.27,339.39-132.6Z"/><path class="cls-3" d="M1227.61,704.57l-.67-.34L937.07,555.81l.32-.31L1131,362.68l.15.54ZM938.17,555.64l288.4,147.65-95.92-339.35Z"/><polygon class="cls-3" points="1010.81 900.35 887.26 837.04 1226.42 704.54 1129.23 900.35 1129.96 900.35 1227.38 704.08 1227.77 703.32 886.35 836.69 885.67 836.97 1009.37 900.35 1010.81 900.35"/><polygon class="cls-3" points="791.19 900.35 765.41 863.36 886.2 837.4 896.47 900.35 897.13 900.35 886.8 836.95 886.73 836.61 764.79 862.83 764.3 862.93 790.38 900.35 791.19 900.35"/><path class="cls-3" d="M886.79,837.06h-.65L842.31,561.39l95.71-6-.08.42ZM843.07,562l43.42,273,50.73-279Z"/><path class="cls-3" d="M647,713l-.21-.21L494.38,547.59l.79,0L843.6,561.4ZM495.94,548.31,647.11,712.08,841.78,562Z"/><path class="cls-3" d="M843.87,562.08,494.65,548.25l.21-.45,76.31-164.06.31.21ZM495.66,547.63l345.86,13.69L571.45,384.71Z"/><path class="cls-3" d="M843.14,562.38l-.62-.4L570.81,384.29l.24-.28L775.14,146.39ZM571.8,384.16,842.24,561,774.72,147.89Z"/><path class="cls-3" d="M383,798.52l.29-.67,111.79-250.5L647.67,712.68l-.49.15Zm112.28-250L384.18,797.45l262.31-85.08Z"/><path class="cls-3" d="M383.74,798.44,176.16,696.09l.62-.29,319-148.53-.36.81ZM177.68,696.1,383.42,797.55,494.5,548.61Z"/><path class="cls-3" d="M571,384.41,417.82,165.05l.17-.19L494,76.57l.15.61,77.43,307ZM418.65,165.09l151.9,217.48L493.72,78Z"/><path class="cls-3" d="M320.79,446l.2-.57,97.15-281.1.37.52L571.85,384.43Zm97.55-280.24L321.81,445.1l249-61.08Z"/><path class="cls-3" d="M1230.31,838.89a5.41,5.41,0,1,1,.39-7.64A5.4,5.4,0,0,1,1230.31,838.89Z"/><path class="cls-3" d="M1229.22,837.68a3.78,3.78,0,1,1,.28-5.34A3.76,3.76,0,0,1,1229.22,837.68Z"/><path class="cls-3" d="M1046.87,891.64a9.87,9.87,0,1,1,.7-13.94A9.88,9.88,0,0,1,1046.87,891.64Z"/><path class="cls-3" d="M1044.11,888.6a5.77,5.77,0,1,1,.42-8.15A5.77,5.77,0,0,1,1044.11,888.6Z"/><path class="cls-3" d="M1043.42,887.83a4.73,4.73,0,1,1,.34-6.68A4.74,4.74,0,0,1,1043.42,887.83Z"/><path class="cls-3" d="M1042.94,887.3a4,4,0,1,1,.29-5.68A4,4,0,0,1,1042.94,887.3Z"/><path class="cls-3" d="M816.2,797.61a4.51,4.51,0,1,1,.33-6.37A4.51,4.51,0,0,1,816.2,797.61Z"/><path class="cls-3" d="M1042.5,886.82a3.37,3.37,0,1,1,.24-4.76A3.36,3.36,0,0,1,1042.5,886.82Z"/><path class="cls-3" d="M968.91,683a4,4,0,1,1,.28-5.63A4,4,0,0,1,968.91,683Z"/><path class="cls-3" d="M1042.29,886.58a3,3,0,1,1,.21-4.3A3,3,0,0,1,1042.29,886.58Z"/><path class="cls-3" d="M547.31,892.82a1.65,1.65,0,1,1,.11-2.32A1.66,1.66,0,0,1,547.31,892.82Z"/><path class="cls-3" d="M646.72,733.48a3.27,3.27,0,1,1,.24-4.64A3.28,3.28,0,0,1,646.72,733.48Z"/><path class="cls-3" d="M743.39,753.41a2.34,2.34,0,1,1,.18-3.31A2.35,2.35,0,0,1,743.39,753.41Z"/><path class="cls-3" d="M968,682a2.58,2.58,0,1,1,.19-3.65A2.58,2.58,0,0,1,968,682Z"/><path class="cls-3" d="M241.5,869.37a6.45,6.45,0,1,1,.46-9.11A6.45,6.45,0,0,1,241.5,869.37Z"/><path class="cls-3" d="M754.14,625.86a1.94,1.94,0,1,1,.14-2.75A1.94,1.94,0,0,1,754.14,625.86Z"/><path class="cls-3" d="M969.84,684.07a5.39,5.39,0,1,1,.4-7.62A5.38,5.38,0,0,1,969.84,684.07Z"/><path class="cls-3" d="M574.21,681.83a11,11,0,1,1,.79-15.47A10.95,10.95,0,0,1,574.21,681.83Z"/><path class="cls-3" d="M647,733.84a3.76,3.76,0,1,1,.27-5.32A3.76,3.76,0,0,1,647,733.84Z"/><path class="cls-3" d="M356.71,752.22a6,6,0,1,1,.43-8.46A6,6,0,0,1,356.71,752.22Z"/><path class="cls-3" d="M359.27,755.05a9.8,9.8,0,1,1,.7-13.85A9.79,9.79,0,0,1,359.27,755.05Z"/><path class="cls-3" d="M746.19,756.48a6.5,6.5,0,1,1,.45-9.17A6.51,6.51,0,0,1,746.19,756.48Z"/><path class="cls-3" d="M403.32,645.6a3.9,3.9,0,1,1,.28-5.51A3.89,3.89,0,0,1,403.32,645.6Z"/><path class="cls-3" d="M571.08,678.37a6.29,6.29,0,1,1,.45-8.88A6.28,6.28,0,0,1,571.08,678.37Z"/><path class="cls-3" d="M124.48,869.16a2.69,2.69,0,1,1,.2-3.81A2.68,2.68,0,0,1,124.48,869.16Z"/><path class="cls-3" d="M754.56,626.34a2.58,2.58,0,1,1,.19-3.66A2.57,2.57,0,0,1,754.56,626.34Z"/><path class="cls-3" d="M920.29,643.28a4.74,4.74,0,1,1,.35-6.7A4.73,4.73,0,0,1,920.29,643.28Z"/><path class="cls-3" d="M569,676.05a3.16,3.16,0,1,1,.23-4.46A3.16,3.16,0,0,1,569,676.05Z"/><path class="cls-3" d="M756.73,628.73a5.81,5.81,0,1,1,.41-8.21A5.8,5.8,0,0,1,756.73,628.73Z"/><path class="cls-3" d="M241.07,868.89a5.81,5.81,0,1,1,.41-8.19A5.8,5.8,0,0,1,241.07,868.89Z"/><path class="cls-3" d="M175.55,641.22a7.73,7.73,0,1,1,.56-10.92A7.72,7.72,0,0,1,175.55,641.22Z"/><path class="cls-3" d="M403.2,645.47a3.72,3.72,0,1,1,.26-5.25A3.73,3.73,0,0,1,403.2,645.47Z"/><path class="cls-3" d="M173.58,639a4.79,4.79,0,1,1,.35-6.77A4.78,4.78,0,0,1,173.58,639Z"/><path class="cls-3" d="M406.58,649.2a8.76,8.76,0,1,1,.62-12.37A8.75,8.75,0,0,1,406.58,649.2Z"/><path class="cls-3" d="M756.63,628.62a5.66,5.66,0,1,1,.4-8A5.65,5.65,0,0,1,756.63,628.62Z"/><path class="cls-3" d="M570.05,677.22a4.75,4.75,0,1,1,.33-6.7A4.75,4.75,0,0,1,570.05,677.22Z"/><path class="cls-3" d="M588.42,549.86a4.92,4.92,0,1,1,.36-6.94A4.9,4.9,0,0,1,588.42,549.86Z"/><path class="cls-3" d="M261.5,458.32a5.43,5.43,0,1,1,.4-7.67A5.42,5.42,0,0,1,261.5,458.32Z"/><path class="cls-3" d="M1076.25,410.19a5.26,5.26,0,1,1,.37-7.43A5.27,5.27,0,0,1,1076.25,410.19Z"/><path class="cls-3" d="M868.22,432.73a4.42,4.42,0,1,1,.31-6.25A4.41,4.41,0,0,1,868.22,432.73Z"/><path class="cls-3" d="M260.84,457.59a4.44,4.44,0,1,1,.32-6.28A4.43,4.43,0,0,1,260.84,457.59Z"/><path class="cls-3" d="M893.9,256.72a5.52,5.52,0,1,1,.4-7.78A5.51,5.51,0,0,1,893.9,256.72Z"/><path class="cls-3" d="M969.82,247.1a4,4,0,1,1,.29-5.61A4,4,0,0,1,969.82,247.1Z"/><path class="cls-3" d="M532.09,404.07a2.37,2.37,0,1,1,.17-3.34A2.36,2.36,0,0,1,532.09,404.07Z"/><path class="cls-3" d="M757.72,479.46a6.28,6.28,0,1,1,.44-8.87A6.3,6.3,0,0,1,757.72,479.46Z"/><path class="cls-3" d="M587.66,549a3.78,3.78,0,1,1,.28-5.34A3.76,3.76,0,0,1,587.66,549Z"/><path class="cls-3" d="M174.24,639.77a5.77,5.77,0,1,1,.42-8.16A5.79,5.79,0,0,1,174.24,639.77Z"/><path class="cls-3" d="M53.4,662.7a5,5,0,1,1,.36-7.12A5,5,0,0,1,53.4,662.7Z"/><path class="cls-3" d="M154.34,554a5.32,5.32,0,1,1,.38-7.51A5.31,5.31,0,0,1,154.34,554Z"/><path class="cls-3" d="M720.52,351.56a8,8,0,1,1,.57-11.36A8,8,0,0,1,720.52,351.56Z"/><path class="cls-3" d="M1232.67,710.11a8.33,8.33,0,1,1,.6-11.76A8.33,8.33,0,0,1,1232.67,710.11Z"/><path class="cls-3" d="M1230,707.17a4.37,4.37,0,1,1,.3-6.16A4.37,4.37,0,0,1,1230,707.17Z"/><path class="cls-3" d="M1231.94,709.31a7.25,7.25,0,1,1,.52-10.24A7.22,7.22,0,0,1,1231.94,709.31Z"/><path class="cls-3" d="M890.23,841.17a5.62,5.62,0,1,1,.41-7.94A5.63,5.63,0,0,1,890.23,841.17Z"/><path class="cls-3" d="M1232.06,709.44a7.42,7.42,0,1,1,.54-10.49A7.42,7.42,0,0,1,1232.06,709.44Z"/><path class="cls-3" d="M939.18,557.45a2.33,2.33,0,1,1-3.12-3.46,2.33,2.33,0,1,1,3.12,3.46Z"/><path class="cls-3" d="M891.39,842.45a7.34,7.34,0,1,1,.52-10.37A7.34,7.34,0,0,1,891.39,842.45Z"/><path class="cls-3" d="M766.76,865.26a2.84,2.84,0,1,1,.2-4A2.86,2.86,0,0,1,766.76,865.26Z"/><path class="cls-3" d="M767.9,866.53a4.55,4.55,0,1,1,.33-6.44A4.56,4.56,0,0,1,767.9,866.53Z"/><path class="cls-3" d="M888.8,839.57a3.47,3.47,0,1,1,.24-4.89A3.47,3.47,0,0,1,888.8,839.57Z"/><path class="cls-3" d="M939,557.25a2.06,2.06,0,1,1,.14-2.9A2.07,2.07,0,0,1,939,557.25Z"/><path class="cls-3" d="M980.35,276.1a3.34,3.34,0,1,1,.24-4.72A3.33,3.33,0,0,1,980.35,276.1Z"/><path class="cls-3" d="M890.84,841.85a6.53,6.53,0,1,1,.47-9.23A6.53,6.53,0,0,1,890.84,841.85Z"/><path class="cls-3" d="M943.32,562a8.5,8.5,0,1,1,.6-12A8.48,8.48,0,0,1,943.32,562Z"/><path class="cls-3" d="M891.62,842.7a7.68,7.68,0,1,1,.55-10.85A7.67,7.67,0,0,1,891.62,842.7Z"/><path class="cls-3" d="M766.5,865a2.45,2.45,0,1,1,.17-3.46A2.44,2.44,0,0,1,766.5,865Z"/><path class="cls-3" d="M981.94,277.86a5.71,5.71,0,1,1,.41-8.07A5.72,5.72,0,0,1,981.94,277.86Z"/><path class="cls-3" d="M767.57,866.16a4.06,4.06,0,1,1,.29-5.73A4.06,4.06,0,0,1,767.57,866.16Z"/><path class="cls-3" d="M845,564.21a3.38,3.38,0,1,1,.25-4.78A3.38,3.38,0,0,1,845,564.21Z"/><path class="cls-3" d="M649.23,714.9a3.21,3.21,0,1,1,.23-4.53A3.2,3.2,0,0,1,649.23,714.9Z"/><path class="cls-3" d="M498.76,551.93a5.37,5.37,0,1,1,.39-7.6A5.38,5.38,0,0,1,498.76,551.93Z"/><path class="cls-3" d="M844.93,564.18a3.35,3.35,0,1,1,.24-4.73A3.35,3.35,0,0,1,844.93,564.18Z"/><path class="cls-3" d="M574.15,387.37a4.24,4.24,0,1,1,.3-6A4.24,4.24,0,0,1,574.15,387.37Z"/><path class="cls-3" d="M573.8,387a3.72,3.72,0,1,1,.27-5.26A3.72,3.72,0,0,1,573.8,387Z"/><path class="cls-3" d="M777.69,150.19a4.11,4.11,0,1,1,.29-5.81A4.1,4.1,0,0,1,777.69,150.19Z"/><path class="cls-3" d="M385.31,799.91a2.59,2.59,0,1,1,.19-3.66A2.58,2.58,0,0,1,385.31,799.91Z"/><path class="cls-3" d="M341.48,893.19a6.32,6.32,0,1,1,.45-8.93A6.31,6.31,0,0,1,341.48,893.19Z"/><path class="cls-3" d="M388.26,803.18a7,7,0,1,1,.5-9.88A7,7,0,0,1,388.26,803.18Z"/><path class="cls-3" d="M339.91,891.45a4,4,0,1,1,.28-5.61A4,4,0,0,1,339.91,891.45Z"/><path class="cls-3" d="M385.87,800.54a3.43,3.43,0,0,1-4.59-5.09,3.43,3.43,0,1,1,4.59,5.09Z"/><path class="cls-3" d="M779.49,152.19a6.8,6.8,0,1,1,.49-9.62A6.8,6.8,0,0,1,779.49,152.19Z"/><path class="cls-3" d="M574,387.18a4,4,0,1,1,.28-5.63A4,4,0,0,1,574,387.18Z"/><path class="cls-3" d="M421.59,168.78a5,5,0,1,1,.36-7.06A5,5,0,0,1,421.59,168.78Z"/><path class="cls-3" d="M326.62,451.44a7.93,7.93,0,1,1,.56-11.19A7.92,7.92,0,0,1,326.62,451.44Z"/><path class="cls-3" d="M497.94,551a4.15,4.15,0,1,1,.3-5.86A4.14,4.14,0,0,1,497.94,551Z"/><path class="cls-3" d="M340.49,892.1a4.85,4.85,0,1,1,.35-6.85A4.83,4.83,0,0,1,340.49,892.1Z"/><path class="cls-3" d="M573,386.09a2.51,2.51,0,1,1,.18-3.55A2.51,2.51,0,0,1,573,386.09Z"/></g><g class="cls-4"><polygon class="cls-3" points="1336.59 857.63 1195.18 839.73 964.88 639.82 1336.59 835.09 1336.59 834.15 962.08 637.4 961.61 638.09 1194.72 840.43 1194.82 840.52 1336.59 858.48 1336.59 857.63"/><polygon class="cls-3" points="1336.59 858.48 1336.59 857.63 1195.05 839.71 1194.57 839.64 1195.67 900.35 1196.51 900.35 1195.43 840.6 1336.59 858.48"/><path class="cls-3" d="M1194.82,840.5,1050,772.34l-.07-.1L961.53,638l.62-.55L1195.26,839.8Zm-144.3-68.81,141.92,66.76L963.91,640.08Z"/><polygon class="cls-3" points="1028.68 900.35 1012.22 884.76 1194.59 840.65 1195.67 900.35 1196.51 900.35 1195.42 840.12 1195.4 839.6 1010.53 884.3 1027.46 900.35 1028.68 900.35"/><polygon class="cls-3" points="1007.6 900.35 1011.59 885.33 1027.46 900.35 1028.68 900.35 1011.15 883.75 1006.73 900.35 1007.6 900.35"/><path class="cls-3" d="M1010.72,885.12,1050,771.44l.42.2,145.84,68.61-1.16.28Zm39.76-112.53L1012,883.94,1193.74,840Z"/><polygon class="cls-3" points="879.37 900.35 850.02 857.36 1010.85 884.87 1006.73 900.35 1007.6 900.35 1011.78 884.64 1011.9 884.19 849.18 856.36 848.21 856.2 878.35 900.35 879.37 900.35"/><polygon class="cls-3" points="832.43 900.35 849.22 857.66 878.35 900.35 879.36 900.35 849.46 856.54 849.01 855.88 831.53 900.35 832.43 900.35"/><path class="cls-3" d="M1011.66,885l-.36-.07L847.63,857l203.3-85.68ZM850.6,856.6l160.49,27.46,38.44-111.29Z"/><path class="cls-3" d="M848.2,857.61l.54-1,113.1-219.66.39.61,88.64,134.67-.47.2Zm113.73-219L850,855.93l199.6-84.1Z"/><polygon class="cls-3" points="578.71 900.35 592.59 752.67 848.1 856.82 759.91 900.35 761.81 900.35 849.3 857.15 850.13 856.74 592.38 751.68 591.86 751.47 577.86 900.35 578.71 900.35"/><path class="cls-3" d="M849.85,857.52l-.89-.36L591.54,752.24l.37-.44L742.44,573.54ZM592.92,751.89,848.38,856,742.15,575.17Z"/><polygon class="cls-3" points="761.81 900.35 848.33 857.63 831.53 900.35 832.43 900.35 849.5 856.92 849.9 855.91 759.91 900.35 761.81 900.35"/><path class="cls-3" d="M591.74,753.3l.07-1.25L605.55,508.7l.56.26L743,574.21ZM606.32,510l-13.6,240.84L741.63,574.51Z"/><polygon class="cls-3" points="364.29 900.35 511.75 764.9 545.45 900.35 546.31 900.35 512.22 763.33 363.05 900.35 364.29 900.35"/><polygon class="cls-3" points="546.31 900.35 512.51 764.46 591.76 752.57 577.86 900.35 578.71 900.35 592.69 751.58 511.93 763.7 511.47 763.76 545.45 900.35 546.31 900.35"/><path class="cls-3" d="M511.35,764.63,605.54,509.2l.81.16L592.62,752.43l-.33.05Zm94-252.51L512.63,763.59l79.19-11.88Z"/><path class="cls-3" d="M215,778.38,268.09,632.6l.42.23,245,131.63-1.51.07ZM268.55,633.8,216.23,777.49l294.22-13.73Z"/><path class="cls-3" d="M512.63,764.94l-.84-.46L267.7,633.34,268,633,424.16,415.79ZM268.94,633.06,511.35,763.29,423.79,417.74Z"/><polygon class="cls-3" points="3.58 900.35 214.86 778.86 172.76 900.35 173.64 900.35 216.38 777.01 1.9 900.35 3.58 900.35"/><path class="cls-3" d="M268.19,634.1l-.27-.76L179.36,377.48l245.35,39ZM180.61,378.53,268.45,632.3,423.24,417.07Z"/><path class="cls-3" d="M268,633.47,121.62,458.21l58.5-81.1.26.76,88.34,255.2ZM122.68,458.17l144.5,173L179.86,378.91Z"/><polygon class="cls-3" points="60.53 703.3 60.15 703.12 0 832 0 834 60.55 704.25 214.72 777.97 1.9 900.35 3.58 900.35 215.83 778.29 216.52 777.9 60.53 703.3"/><path class="cls-3" d="M215.86,778.51l-.42-.2L59.24,703.62,269,632.53l-.29.81ZM61.46,703.75l153.92,73.61,52.25-143.47Z"/><path class="cls-3" d="M59.75,704.33l.19-.74,62-246.31.53.63L269,633.41l-.57.19Zm62.6-245.24L61,703l206.66-70Z"/><polygon class="cls-3" points="1336.59 55.27 1199.92 153.67 741.84 169.76 1336.59 7.54 1336.59 6.67 738.13 169.9 738.25 170.72 1200.07 154.51 1200.2 154.5 1336.59 56.31 1336.59 55.27"/><polygon class="cls-3" points="1336.59 294.87 1200.69 154.15 1336.59 56.31 1336.59 55.27 1199.81 153.75 1199.42 154.03 1336.59 296.08 1336.59 294.87"/><path class="cls-3" d="M972,227.64l-.11,0-233.76-56.9.09-.83L1200,153.67l.15.82Zm-230.72-57L972,226.77l225.06-72.15Z"/><polygon class="cls-3" points="1336.59 704.08 1155.1 596.58 1336.59 463.16 1336.59 462.11 1154.08 596.27 1153.57 596.65 1336.59 705.06 1336.59 704.08"/><polygon class="cls-3" points="1336.59 392.06 1044.99 389.7 1200.12 154.76 1336.59 296.08 1336.59 294.87 1200.36 153.8 1200 153.42 1043.87 389.88 1043.44 390.53 1336.59 392.9 1336.59 392.06"/><polygon class="cls-3" points="1336.59 462.11 1154.47 595.99 1044.92 390.54 1336.59 392.9 1336.59 392.06 1044.22 389.69 1043.52 389.69 1153.96 596.81 1154.19 597.24 1336.59 463.16 1336.59 462.11"/><polygon class="cls-3" points="1336.59 751.49 1219.47 900.35 1220.53 900.35 1336.59 752.85 1336.59 751.49"/><path class="cls-3" d="M1044.15,391l-.32-.7L971.42,227l229.64-73.62-.65,1ZM972.58,227.46l71.71,161.78,154.76-234.39Z"/><polygon class="cls-3" points="1336.59 705.06 1336.59 704.08 1154.55 596.25 1153.73 595.77 1214.97 900.35 1215.82 900.35 1154.93 597.45 1336.59 705.06"/><polygon class="cls-3" points="1336.59 751.49 1219.47 900.35 1220.53 900.35 1336.59 752.85 1336.59 751.49"/><polygon class="cls-3" points="1196.93 900.35 967.02 850.31 1154.12 597.62 1214.97 900.35 1215.82 900.35 1154.75 596.52 1154.56 595.6 965.96 850.33 965.57 850.85 1192.98 900.35 1196.93 900.35"/><path class="cls-3" d="M1155.14,597.22l-.89-.2L837.1,525.48l.83-.54,206.44-135.43.21.41ZM839.21,525.09,1153.54,596,1044.06,390.72Z"/><path class="cls-3" d="M966.18,851.44l-.27-.71-128.44-326,.77.17,316.81,71.47-.38.52ZM838.83,525.88,966.41,849.72l187.21-252.84Z"/><polygon class="cls-3" points="965.2 900.35 966.7 851.09 1192.98 900.35 1196.93 900.35 966.39 850.17 965.89 850.06 964.36 900.35 965.2 900.35"/><path class="cls-3" d="M837.19,526.43l.58-1.32L972,226.18l72.75,164.09-.31.2ZM972,228.23,839.12,524.15,1043.69,390Z"/><path class="cls-3" d="M838.07,526.52l-.32-1.12L737.64,169.72l235,57.2-.21.46ZM738.83,170.88l99.41,353.18L971.41,227.49Z"/><polygon class="cls-3" points="625.7 900.35 450.59 672.91 837.43 526.01 695.55 900.35 696.45 900.35 838.55 525.44 838.87 524.56 449.77 672.34 449.24 672.53 624.63 900.35 625.7 900.35"/><path class="cls-3" d="M449.53,673.33l0-.58L432.55,324.23l.63.31,406,200.8ZM433.46,325.61l16.85,346.52L837.1,525.23Z"/><polygon class="cls-3" points="696.45 900.35 838.17 526.45 965.74 850.34 833.96 900.35 836.32 900.35 966.44 850.97 966.84 850.82 838.14 524.13 695.55 900.35 696.45 900.35"/><polygon class="cls-3" points="836.32 900.35 965.85 851.19 964.36 900.35 965.2 900.35 966.71 850.59 966.73 849.96 833.96 900.35 836.32 900.35"/><path class="cls-3" d="M450.4,674l-.81-1-233-280.36.59-.19,216.23-68.1,0,.55ZM218,393.07,449.44,671.49l-16.83-346Z"/><polygon class="cls-3" points="364.38 900.35 374.68 768.54 577.15 900.35 578.69 900.35 374.54 767.45 373.95 767.07 363.54 900.35 364.38 900.35"/><polygon class="cls-3" points="578.69 900.35 374.93 767.7 449.92 673.4 624.63 900.35 625.7 900.35 449.93 672.04 373.98 767.53 373.7 767.9 577.15 900.35 578.69 900.35"/><path class="cls-3" d="M374.2,768.61l-.27-.65-157-375,.71-.43L450.46,672.72l-.21.27ZM218.76,395.28,374.43,767l74.95-94.25Z"/><polygon class="cls-3" points="245.28 900.35 373.8 768.92 363.54 900.35 364.38 900.35 374.73 767.83 374.82 766.69 244.11 900.35 245.28 900.35"/><polygon class="cls-3" points="0 865.74 0 866.61 372.95 768.59 244.11 900.35 245.28 900.35 374.61 768.09 375.67 767.01 0 865.74"/><polygon class="cls-3" points="0 525.94 0 526.94 373.28 767.63 0 865.74 0 866.61 374.42 768.21 375.34 767.97 0 525.94"/><path class="cls-3" d="M1199,840.12a4,4,0,1,1-4-4A4,4,0,0,1,1199,840.12Z"/><circle class="cls-3" cx="961.88" cy="637.77" r="6.91"/><path class="cls-3" d="M1203.67,840.12a8.68,8.68,0,1,1-8.68-8.67A8.67,8.67,0,0,1,1203.67,840.12Z"/><path class="cls-3" d="M1203.93,840.12a8.94,8.94,0,1,1-8.94-8.94A8.95,8.95,0,0,1,1203.93,840.12Z"/><path class="cls-3" d="M1056.53,772a6.29,6.29,0,1,1-6.29-6.29A6.29,6.29,0,0,1,1056.53,772Z"/><path class="cls-3" d="M966.71,637.77a4.83,4.83,0,1,1-4.83-4.83A4.83,4.83,0,0,1,966.71,637.77Z"/><path class="cls-3" d="M1014.89,884.53a3.52,3.52,0,1,1-3.52-3.51A3.51,3.51,0,0,1,1014.89,884.53Z"/><path class="cls-3" d="M1201.51,840.12a6.51,6.51,0,1,1-6.52-6.51A6.51,6.51,0,0,1,1201.51,840.12Z"/><path class="cls-3" d="M1024,884.53a12.6,12.6,0,1,1-12.6-12.61A12.6,12.6,0,0,1,1024,884.53Z"/><path class="cls-3" d="M1203.41,840.12a8.42,8.42,0,1,1-8.42-8.41A8.41,8.41,0,0,1,1203.41,840.12Z"/><path class="cls-3" d="M1018.36,884.53a7,7,0,1,1-7-7A7,7,0,0,1,1018.36,884.53Z"/><path class="cls-3" d="M1058.2,772a8,8,0,1,1-8-8A8,8,0,0,1,1058.2,772Z"/><path class="cls-3" d="M861.73,856.77a12.62,12.62,0,1,1-12.62-12.6A12.63,12.63,0,0,1,861.73,856.77Z"/><path class="cls-3" d="M1019.09,884.53a7.72,7.72,0,1,1-7.72-7.71A7.72,7.72,0,0,1,1019.09,884.53Z"/><path class="cls-3" d="M856.05,856.77a6.94,6.94,0,1,1-6.94-6.94A6.93,6.93,0,0,1,856.05,856.77Z"/><path class="cls-3" d="M1020.89,884.53a9.52,9.52,0,1,1-9.52-9.52A9.53,9.53,0,0,1,1020.89,884.53Z"/><path class="cls-3" d="M856.48,856.77a7.37,7.37,0,1,1-7.37-7.36A7.37,7.37,0,0,1,856.48,856.77Z"/><path class="cls-3" d="M1053,772a2.73,2.73,0,1,1-2.73-2.73A2.73,2.73,0,0,1,1053,772Z"/><path class="cls-3" d="M1053.84,772a3.6,3.6,0,1,1-3.6-3.6A3.6,3.6,0,0,1,1053.84,772Z"/><circle class="cls-3" cx="849.11" cy="856.77" r="6.04"/><path class="cls-3" d="M967,637.77a5.07,5.07,0,1,1-5.07-5.08A5.06,5.06,0,0,1,967,637.77Z"/><path class="cls-3" d="M854.25,856.77a5.14,5.14,0,1,1-5.14-5.13A5.14,5.14,0,0,1,854.25,856.77Z"/><path class="cls-3" d="M596.06,752.07a3.83,3.83,0,1,1-3.83-3.83A3.84,3.84,0,0,1,596.06,752.07Z"/><path class="cls-3" d="M853.42,856.77a4.31,4.31,0,1,1-4.31-4.3A4.31,4.31,0,0,1,853.42,856.77Z"/><circle class="cls-3" cx="592.23" cy="752.07" r="5.1"/><path class="cls-3" d="M747,574.36a4.68,4.68,0,1,1-4.69-4.68A4.69,4.69,0,0,1,747,574.36Z"/><path class="cls-3" d="M853,856.77a3.89,3.89,0,1,1-3.89-3.88A3.89,3.89,0,0,1,853,856.77Z"/><path class="cls-3" d="M752.32,574.36a10,10,0,1,1-10-10A10,10,0,0,1,752.32,574.36Z"/><path class="cls-3" d="M595.52,752.07a3.29,3.29,0,1,1-3.29-3.3A3.3,3.3,0,0,1,595.52,752.07Z"/><path class="cls-3" d="M609.45,509.34a3.52,3.52,0,1,1-3.52-3.51A3.52,3.52,0,0,1,609.45,509.34Z"/><path class="cls-3" d="M521.32,764.11a9.33,9.33,0,1,1-9.33-9.33A9.33,9.33,0,0,1,521.32,764.11Z"/><path class="cls-3" d="M523.12,764.11A11.13,11.13,0,1,1,512,753,11.13,11.13,0,0,1,523.12,764.11Z"/><path class="cls-3" d="M599.12,752.07a6.9,6.9,0,1,1-6.89-6.9A6.9,6.9,0,0,1,599.12,752.07Z"/><path class="cls-3" d="M596.62,752.07a4.39,4.39,0,1,1-4.39-4.4A4.39,4.39,0,0,1,596.62,752.07Z"/><path class="cls-3" d="M519.6,764.11A7.62,7.62,0,1,1,512,756.5,7.61,7.61,0,0,1,519.6,764.11Z"/><path class="cls-3" d="M612.93,509.34a7,7,0,1,1-7-7A7,7,0,0,1,612.93,509.34Z"/><path class="cls-3" d="M522.13,764.11A10.14,10.14,0,1,1,512,754,10.14,10.14,0,0,1,522.13,764.11Z"/><path class="cls-3" d="M224.11,777.93a8.49,8.49,0,1,1-8.49-8.49A8.5,8.5,0,0,1,224.11,777.93Z"/><path class="cls-3" d="M518.05,764.11a6.06,6.06,0,1,1-6.06-6.06A6.06,6.06,0,0,1,518.05,764.11Z"/><path class="cls-3" d="M219.89,777.93a4.27,4.27,0,1,1-4.27-4.27A4.27,4.27,0,0,1,219.89,777.93Z"/><path class="cls-3" d="M272.06,633.2a3.74,3.74,0,1,1-3.74-3.73A3.73,3.73,0,0,1,272.06,633.2Z"/><path class="cls-3" d="M523.6,764.11A11.62,11.62,0,1,1,512,752.49,11.61,11.61,0,0,1,523.6,764.11Z"/><path class="cls-3" d="M270.63,633.2a2.31,2.31,0,1,1-2.31-2.3A2.33,2.33,0,0,1,270.63,633.2Z"/><path class="cls-3" d="M428.93,416.77a5,5,0,1,1-5-4.95A5,5,0,0,1,428.93,416.77Z"/><path class="cls-3" d="M222.76,777.93a7.14,7.14,0,1,1-7.14-7.13A7.14,7.14,0,0,1,222.76,777.93Z"/><path class="cls-3" d="M218.9,777.93a3.28,3.28,0,1,1-3.28-3.28A3.28,3.28,0,0,1,218.9,777.93Z"/><path class="cls-3" d="M430.69,416.77a6.72,6.72,0,1,1-6.72-6.72A6.71,6.71,0,0,1,430.69,416.77Z"/><path class="cls-3" d="M274,633.2a5.65,5.65,0,1,1-5.65-5.64A5.66,5.66,0,0,1,274,633.2Z"/><path class="cls-3" d="M184.59,378a4.61,4.61,0,1,1-4.6-4.61A4.6,4.6,0,0,1,184.59,378Z"/><path class="cls-3" d="M272.06,633.2a3.74,3.74,0,1,1-3.74-3.74A3.73,3.73,0,0,1,272.06,633.2Z"/><path class="cls-3" d="M129.19,458.19a7,7,0,1,1-7-7.05A7,7,0,0,1,129.19,458.19Z"/><path class="cls-3" d="M185.07,378a5.08,5.08,0,1,1-5.08-5.08A5.08,5.08,0,0,1,185.07,378Z"/><path class="cls-3" d="M220.26,777.93a4.64,4.64,0,1,1-4.64-4.63A4.64,4.64,0,0,1,220.26,777.93Z"/><path class="cls-3" d="M69.25,703.69a8.9,8.9,0,1,1-8.9-8.9A8.89,8.89,0,0,1,69.25,703.69Z"/><path class="cls-3" d="M223.64,777.93a8,8,0,1,1-8-8A8,8,0,0,1,223.64,777.93Z"/><path class="cls-3" d="M66.3,703.69a6,6,0,1,1-5.95-6A6,6,0,0,1,66.3,703.69Z"/><path class="cls-3" d="M272.94,633.2a4.62,4.62,0,1,1-4.62-4.62A4.62,4.62,0,0,1,272.94,633.2Z"/><circle class="cls-3" cx="268.32" cy="633.2" r="6.45"/><path class="cls-3" d="M70.62,703.69a10.27,10.27,0,1,1-10.27-10.27A10.26,10.26,0,0,1,70.62,703.69Z"/><path class="cls-3" d="M126.74,458.19a4.59,4.59,0,1,1-4.59-4.59A4.6,4.6,0,0,1,126.74,458.19Z"/><path class="cls-3" d="M1206.53,154.09a6.48,6.48,0,1,1-6.47-6.49A6.47,6.47,0,0,1,1206.53,154.09Z"/><ellipse class="cls-3" cx="738.24" cy="170.3" rx="6.49" ry="6.5"/><path class="cls-3" d="M1207.14,154.09a7.09,7.09,0,1,1-7.08-7.09A7.08,7.08,0,0,1,1207.14,154.09Z"/><path class="cls-3" d="M1205.47,154.09a5.42,5.42,0,1,1-5.41-5.41A5.42,5.42,0,0,1,1205.47,154.09Z"/><path class="cls-3" d="M979.26,227.2a7.26,7.26,0,1,1-7.26-7.26A7.26,7.26,0,0,1,979.26,227.2Z"/><path class="cls-3" d="M745.35,170.3a7.12,7.12,0,1,1-7.11-7.11A7.11,7.11,0,0,1,745.35,170.3Z"/><path class="cls-3" d="M1160.66,596.61a6.33,6.33,0,1,1-6.33-6.33A6.32,6.32,0,0,1,1160.66,596.61Z"/><path class="cls-3" d="M1047.16,390.12a2.94,2.94,0,1,1-3-2.95A2.95,2.95,0,0,1,1047.16,390.12Z"/><ellipse class="cls-3" cx="1200.06" cy="154.09" rx="7.14" ry="7.14"/><path class="cls-3" d="M1161,596.61a6.7,6.7,0,1,1-6.7-6.69A6.7,6.7,0,0,1,1161,596.61Z"/><path class="cls-3" d="M1048,390.12a3.83,3.83,0,1,1-3.83-3.83A3.83,3.83,0,0,1,1048,390.12Z"/><path class="cls-3" d="M1218.39,900.35a5,5,0,0,0-4.11,0Z"/><path class="cls-3" d="M1208.5,154.09a8.45,8.45,0,1,1-8.44-8.44A8.44,8.44,0,0,1,1208.5,154.09Z"/><path class="cls-3" d="M1054.93,390.12a10.71,10.71,0,1,1-10.72-10.72A10.71,10.71,0,0,1,1054.93,390.12Z"/><path class="cls-3" d="M974.67,227.2a2.68,2.68,0,1,1-2.67-2.67A2.67,2.67,0,0,1,974.67,227.2Z"/><path class="cls-3" d="M1161,596.61a6.7,6.7,0,1,1-6.7-6.7A6.7,6.7,0,0,1,1161,596.61Z"/><circle class="cls-3" cx="1154.33" cy="596.61" r="7.93"/><path class="cls-3" d="M1221.4,900.35a6.84,6.84,0,0,0-10.14,0Z"/><path class="cls-3" d="M969.31,850.58a3,3,0,1,1-3-3A3,3,0,0,1,969.31,850.58Z"/><path class="cls-3" d="M1164.93,596.61a10.6,10.6,0,1,1-10.6-10.58A10.59,10.59,0,0,1,1164.93,596.61Z"/><path class="cls-3" d="M848.79,525.29a10.64,10.64,0,1,1-10.64-10.64A10.64,10.64,0,0,1,848.79,525.29Z"/><path class="cls-3" d="M1051.29,390.12a7.08,7.08,0,1,1-7.08-7.08A7.07,7.07,0,0,1,1051.29,390.12Z"/><path class="cls-3" d="M1161,596.61a6.69,6.69,0,1,1-6.69-6.68A6.68,6.68,0,0,1,1161,596.61Z"/><path class="cls-3" d="M975.27,850.58a9,9,0,1,1-9-9A9,9,0,0,1,975.27,850.58Z"/><path class="cls-3" d="M842.18,525.29a4,4,0,1,1-4-4A4,4,0,0,1,842.18,525.29Z"/><path class="cls-3" d="M974.28,850.58a8,8,0,1,1-8-8A8,8,0,0,1,974.28,850.58Z"/><path class="cls-3" d="M1051.26,390.12a7,7,0,1,1-7-7.05A7,7,0,0,1,1051.26,390.12Z"/><circle class="cls-3" cx="838.15" cy="525.29" r="5.57"/><path class="cls-3" d="M976.35,227.2a4.35,4.35,0,1,1-4.35-4.34A4.35,4.35,0,0,1,976.35,227.2Z"/><path class="cls-3" d="M974.08,227.2a2.08,2.08,0,1,1-2.08-2.07A2.08,2.08,0,0,1,974.08,227.2Z"/><path class="cls-3" d="M847.4,525.29a9.25,9.25,0,1,1-9.25-9.26A9.26,9.26,0,0,1,847.4,525.29Z"/><path class="cls-3" d="M747.5,170.3a9.27,9.27,0,1,1-9.26-9.27A9.26,9.26,0,0,1,747.5,170.3Z"/><path class="cls-3" d="M842.23,525.29a4.08,4.08,0,1,1-4.08-4.08A4.08,4.08,0,0,1,842.23,525.29Z"/><path class="cls-3" d="M455.91,672.73a6,6,0,1,1-6-6A6,6,0,0,1,455.91,672.73Z"/><path class="cls-3" d="M847.63,525.29a9.48,9.48,0,1,1-9.48-9.49A9.47,9.47,0,0,1,847.63,525.29Z"/><path class="cls-3" d="M452.9,672.73a3,3,0,1,1-3-3A3,3,0,0,1,452.9,672.73Z"/><path class="cls-3" d="M440.45,324.92a7.45,7.45,0,1,1-7.45-7.45A7.45,7.45,0,0,1,440.45,324.92Z"/><path class="cls-3" d="M979.32,850.58a13,13,0,1,1-13-13A13,13,0,0,1,979.32,850.58Z"/><path class="cls-3" d="M845,525.29a6.86,6.86,0,1,1-6.86-6.85A6.86,6.86,0,0,1,845,525.29Z"/><path class="cls-3" d="M971.49,850.58a5.2,5.2,0,1,1-5.19-5.2A5.2,5.2,0,0,1,971.49,850.58Z"/><path class="cls-3" d="M439.73,324.92a6.73,6.73,0,1,1-6.73-6.73A6.74,6.74,0,0,1,439.73,324.92Z"/><path class="cls-3" d="M452.54,672.73a2.62,2.62,0,1,1-2.62-2.62A2.62,2.62,0,0,1,452.54,672.73Z"/><circle class="cls-3" cx="217.29" cy="392.85" r="4.27"/><path class="cls-3" d="M380.46,767.8a6.15,6.15,0,1,1-6.15-6.15A6.15,6.15,0,0,1,380.46,767.8Z"/><path class="cls-3" d="M379.33,767.8a5,5,0,1,1-5-5A5,5,0,0,1,379.33,767.8Z"/><path class="cls-3" d="M460.78,672.73a10.86,10.86,0,1,1-10.86-10.86A10.87,10.87,0,0,1,460.78,672.73Z"/><path class="cls-3" d="M459.73,672.73a9.82,9.82,0,1,1-9.81-9.81A9.81,9.81,0,0,1,459.73,672.73Z"/><path class="cls-3" d="M377.69,767.8a3.38,3.38,0,1,1-3.38-3.38A3.38,3.38,0,0,1,377.69,767.8Z"/><path class="cls-3" d="M224.58,392.85a7.29,7.29,0,1,1-7.29-7.3A7.29,7.29,0,0,1,224.58,392.85Z"/><path class="cls-3" d="M378.62,767.8a4.31,4.31,0,1,1-4.31-4.31A4.31,4.31,0,0,1,378.62,767.8Z"/><path class="cls-3" d="M378.58,767.8a4.27,4.27,0,1,1-4.27-4.27A4.27,4.27,0,0,1,378.58,767.8Z"/><path class="cls-3" d="M380.84,767.8a6.53,6.53,0,1,1-6.53-6.53A6.53,6.53,0,0,1,380.84,767.8Z"/></g><g class="cls-2"><polygon class="cls-3" points="1228.32 900.35 1227.08 962.99 1243.13 900.35 1243.82 900.35 1227 965.89 1226.36 965.8 1227.67 900.35 1228.32 900.35"/><polygon class="cls-3" points="1210.04 900.35 1226.41 963.42 1227.67 900.35 1228.32 900.35 1227.02 965.82 1226.37 965.89 1209.36 900.35 1210.04 900.35"/><polygon class="cls-3" points="998.62 900.35 1039.79 915.85 1036.03 900.35 1036.72 900.35 1040.57 916.3 1040.71 916.9 996.74 900.35 998.62 900.35"/><polygon class="cls-3" points="1050.8 900.35 1041.12 915.61 1073.75 900.35 1075.31 900.35 1039.37 917.15 1050.02 900.35 1050.8 900.35"/><polygon class="cls-3" points="542.01 900.35 545.71 907.43 544.99 900.35 545.65 900.35 546.53 909.06 545.91 909.24 541.27 900.35 542.01 900.35"/><path class="cls-3" d="M966.54,1120.73l-.15.42L813,1006.69l-.47-.35,228.3-90.54Zm-.47-.64L1039.69,917l-225.85,89.56Z"/><path class="cls-3" d="M1148.55,1126.55l.26.5L966.22,1121h-.45l74.43-205.39Zm-.84-.2L1040.3,917.19,966.69,1120.3Z"/><polygon class="cls-3" points="851.94 900.35 813.74 1005.86 1039.34 916.38 996.74 900.35 998.61 900.35 1041.16 916.37 813.3 1006.74 812.62 1007 851.23 900.35 851.94 900.35"/><polygon class="cls-3" points="721.05 900.35 742.09 1048.49 812.71 1006.32 742.04 900.35 742.83 900.35 813.64 1006.53 741.58 1049.56 720.39 900.35 721.05 900.35"/><path class="cls-3" d="M1148.26,1126.37h.44l-33.94,113.79-.14.47L965.25,1120.26Zm-.44.65-180.62-6,147.07,118.53Z"/><polygon class="cls-3" points="321.94 900.35 352.85 1052.01 442.15 900.35 442.91 900.35 352.55 1053.82 321.27 900.35 321.94 900.35"/><path class="cls-3" d="M644.8,1069.48l.16.26-77.9,57.52-.47.34L545.88,909.12l.6-.2Zm-.72.08L546.67,910.47l20.47,215.91Z"/><path class="cls-3" d="M567.19,1127l0,.51L352,1053,546,908.83l.47-.35Zm-.7-.44L545.93,909.7,353.39,1052.81Z"/><path class="cls-3" d="M753.14,1176.39l-.63-.09-11-127.25v-.21l72.3-43.16Zm-.11-1.66,59.53-167.55-70.39,42Z"/><path class="cls-3" d="M568.14,1127.08l-167.62,31.27-48.44-106Zm-2.56-.18-212.27-73.43,47.59,104.14Z"/><path class="cls-3" d="M865.58,1371.32l-.1.37L752.92,1326l164.79-166.15Zm-.56-.52L916.5,1162,754.08,1325.78Z"/><path class="cls-3" d="M1073,1394.23l.39.58-208.53-23.28,51.95-210.69.17-.71Zm-.94-.23-154.8-232.27L865.66,1371Z"/><path class="cls-3" d="M352.93,1052.68l.29.29-183.41,113L237,935.48Zm-.76.18L237.34,936.73l-66.42,227.76Z"/><path class="cls-3" d="M585.46,1254.43l.07.55-64.69-23.46L567,1125.8Zm-.73-.44-18-125.81-45,103Z"/><path class="cls-3" d="M258.16,1346.26l-.51.39L150.56,1250.9l-.14-.13,19.84-86.54Zm-1.31-1.21L170.48,1166.2l-19.34,84.34Z"/><path class="cls-3" d="M1073.29,1394.14,967.43,1556.72l-.3.46L864.66,1370.85Zm-1.13.54-206.31-23L967.18,1555.9Z"/><path class="cls-3" d="M257.8,1347l-87.72-181.67-.23-.46,230.84-7.24.69,0Zm.13-1.25L400,1158.33l-229.14,7.19Z"/><path class="cls-3" d="M890.53,1548l.1.64L715,1455.38l-.53-.28,151.06-84.38Zm-.74-.55L865,1371.76l-149.18,83.33Z"/><polygon class="cls-3" points="1336.59 902.96 1227.75 1096.24 1336.59 1067.81 1336.59 1068.49 1226.42 1097.28 1336.59 901.62 1336.59 902.96"/><polygon class="cls-3" points="1336.59 1132.51 1227.85 1097.35 1336.59 1270.16 1336.59 1271.4 1226.81 1096.93 1226.33 1096.17 1336.59 1131.81 1336.59 1132.51"/><path class="cls-3" d="M1227.88,1096.72l-290.5,148.74L886.14,963.75l-.1-.58Zm-1.59.08L886.9,964.21l51,280.26Z"/><path class="cls-3" d="M1131.13,1437.47l-.15.54L937.39,1245.2l-.32-.32,289.87-148.42.67-.34Zm-.48-.72,95.92-339.35-288.4,147.66Z"/><polygon class="cls-3" points="1010.81 900.35 887.26 963.65 1226.42 1096.15 1129.23 900.35 1129.96 900.35 1227.38 1096.61 1227.77 1097.38 886.35 964 885.67 963.73 1009.37 900.35 1010.81 900.35"/><polygon class="cls-3" points="791.19 900.35 765.41 937.33 886.2 963.29 896.47 900.35 897.13 900.35 886.8 963.74 886.73 964.09 764.79 937.86 764.3 937.76 790.38 900.35 791.19 900.35"/><path class="cls-3" d="M937.94,1244.9l.08.42-95.71-6,43.83-275.66h.65Zm-.72-.29-50.73-279-43.42,273.05Z"/><path class="cls-3" d="M843.6,1239.29l-348.43,13.79-.79,0L646.83,1088l.21-.22Zm-1.82-.59L647.11,1088.61,495.94,1252.39Z"/><path class="cls-3" d="M571.48,1416.74l-.31.21-76.31-164.06-.21-.45,349.22-13.82Zm0-.75,270.07-176.62-345.86,13.69Z"/><path class="cls-3" d="M775.14,1654.3,571.05,1416.68l-.24-.28,271.71-177.69.62-.4Zm-.42-1.5,67.52-413.13L571.8,1416.53Z"/><path class="cls-3" d="M647.18,1087.86l.49.15L495.06,1253.34l-111.79-250.5-.29-.67Zm-.69.47-262.31-85.09,111.08,248.92Z"/><path class="cls-3" d="M495.46,1252.62l.36.8-319-148.53-.62-.29,207.58-102.35Zm-1-.54L383.42,1003.15,177.68,1104.59Z"/><path class="cls-3" d="M571.62,1416.55l-77.43,307-.15.62L418,1635.84l-.17-.2L571,1416.28Zm-77.9,306.19,76.83-304.62L418.65,1635.6Z"/><path class="cls-3" d="M571.85,1416.26,418.51,1635.81l-.37.53L321,1355.23l-.2-.56Zm-1.09.41-248.95-61.08,96.53,279.32Z"/><path class="cls-3" d="M1230.31,961.8a5.41,5.41,0,1,0,.39,7.64A5.4,5.4,0,0,0,1230.31,961.8Z"/><path class="cls-3" d="M1229.22,963a3.78,3.78,0,1,0,.28,5.34A3.78,3.78,0,0,0,1229.22,963Z"/><path class="cls-3" d="M1046.87,909.05a9.87,9.87,0,1,0,.7,13.94A9.88,9.88,0,0,0,1046.87,909.05Z"/><path class="cls-3" d="M1044.11,912.09a5.77,5.77,0,1,0,.42,8.15A5.77,5.77,0,0,0,1044.11,912.09Z"/><path class="cls-3" d="M1043.42,912.87a4.73,4.73,0,1,0,.34,6.67A4.73,4.73,0,0,0,1043.42,912.87Z"/><path class="cls-3" d="M1042.94,913.39a4,4,0,1,0,.29,5.69A4,4,0,0,0,1042.94,913.39Z"/><path class="cls-3" d="M816.2,1003.08a4.51,4.51,0,1,0,.33,6.38A4.52,4.52,0,0,0,816.2,1003.08Z"/><path class="cls-3" d="M1042.5,913.88a3.37,3.37,0,1,0,.24,4.75A3.35,3.35,0,0,0,1042.5,913.88Z"/><path class="cls-3" d="M968.91,1117.66a4,4,0,1,0,.28,5.64A4,4,0,0,0,968.91,1117.66Z"/><path class="cls-3" d="M1042.29,914.12a3,3,0,1,0,.21,4.29A3,3,0,0,0,1042.29,914.12Z"/><path class="cls-3" d="M646.72,1067.21a3.28,3.28,0,1,0,.24,4.64A3.28,3.28,0,0,0,646.72,1067.21Z"/><path class="cls-3" d="M743.39,1047.29a2.34,2.34,0,0,0-3.13,3.47,2.34,2.34,0,1,0,3.13-3.47Z"/><path class="cls-3" d="M968,1118.71a2.58,2.58,0,1,0,.19,3.64A2.58,2.58,0,0,0,968,1118.71Z"/><path class="cls-3" d="M241.5,931.32a6.45,6.45,0,1,0,.46,9.11A6.45,6.45,0,0,0,241.5,931.32Z"/><path class="cls-3" d="M754.14,1174.83a1.94,1.94,0,1,0,.14,2.75A1.94,1.94,0,0,0,754.14,1174.83Z"/><path class="cls-3" d="M969.84,1116.62a5.39,5.39,0,1,0,.4,7.62A5.39,5.39,0,0,0,969.84,1116.62Z"/><path class="cls-3" d="M574.21,1118.86a11,11,0,1,0,.79,15.48A10.95,10.95,0,0,0,574.21,1118.86Z"/><path class="cls-3" d="M647,1066.85a3.76,3.76,0,1,0,.27,5.32A3.75,3.75,0,0,0,647,1066.85Z"/><path class="cls-3" d="M356.71,1048.47a6,6,0,1,0,.43,8.46A6,6,0,0,0,356.71,1048.47Z"/><path class="cls-3" d="M359.27,1045.64a9.8,9.8,0,1,0,.7,13.85A9.8,9.8,0,0,0,359.27,1045.64Z"/><path class="cls-3" d="M746.19,1044.21a6.5,6.5,0,1,0,.45,9.17A6.51,6.51,0,0,0,746.19,1044.21Z"/><path class="cls-3" d="M403.32,1155.09a3.9,3.9,0,1,0,.28,5.51A3.89,3.89,0,0,0,403.32,1155.09Z"/><path class="cls-3" d="M571.08,1122.32a6.29,6.29,0,1,0,.45,8.88A6.29,6.29,0,0,0,571.08,1122.32Z"/><path class="cls-3" d="M155.94,931.53a2.69,2.69,0,1,0,.2,3.81A2.71,2.71,0,0,0,155.94,931.53Z"/><path class="cls-3" d="M754.56,1174.35a2.58,2.58,0,1,0,.19,3.66A2.58,2.58,0,0,0,754.56,1174.35Z"/><path class="cls-3" d="M920.29,1157.41a4.74,4.74,0,1,0,.35,6.7A4.73,4.73,0,0,0,920.29,1157.41Z"/><path class="cls-3" d="M569,1124.64a3.16,3.16,0,1,0,.23,4.46A3.16,3.16,0,0,0,569,1124.64Z"/><path class="cls-3" d="M756.73,1172a5.81,5.81,0,1,0,.41,8.21A5.8,5.8,0,0,0,756.73,1172Z"/><path class="cls-3" d="M241.07,931.8a5.81,5.81,0,1,0,.41,8.19A5.8,5.8,0,0,0,241.07,931.8Z"/><path class="cls-3" d="M175.55,1159.47a7.73,7.73,0,1,0,.56,10.92A7.72,7.72,0,0,0,175.55,1159.47Z"/><path class="cls-3" d="M158.25,929a6.13,6.13,0,1,0,.44,8.65A6.14,6.14,0,0,0,158.25,929Z"/><path class="cls-3" d="M403.2,1155.22a3.72,3.72,0,1,0,.26,5.25A3.73,3.73,0,0,0,403.2,1155.22Z"/><path class="cls-3" d="M173.58,1161.65a4.79,4.79,0,1,0,.35,6.78A4.79,4.79,0,0,0,173.58,1161.65Z"/><path class="cls-3" d="M406.58,1151.49a8.76,8.76,0,1,0,.62,12.37A8.75,8.75,0,0,0,406.58,1151.49Z"/><path class="cls-3" d="M756.63,1172.07a5.66,5.66,0,1,0,.4,8A5.65,5.65,0,0,0,756.63,1172.07Z"/><path class="cls-3" d="M570.05,1123.47a4.75,4.75,0,1,0,.33,6.7A4.75,4.75,0,0,0,570.05,1123.47Z"/><path class="cls-3" d="M588.42,1250.83a4.92,4.92,0,1,0,.36,6.94A4.9,4.9,0,0,0,588.42,1250.83Z"/><path class="cls-3" d="M261.5,1342.37a5.43,5.43,0,1,0,.4,7.67A5.43,5.43,0,0,0,261.5,1342.37Z"/><path class="cls-3" d="M1076.25,1390.51a5.26,5.26,0,1,0,.37,7.42A5.26,5.26,0,0,0,1076.25,1390.51Z"/><path class="cls-3" d="M868.22,1368a4.42,4.42,0,1,0,.31,6.25A4.41,4.41,0,0,0,868.22,1368Z"/><path class="cls-3" d="M260.84,1343.1a4.44,4.44,0,1,0,.32,6.28A4.43,4.43,0,0,0,260.84,1343.1Z"/><path class="cls-3" d="M893.9,1544a5.52,5.52,0,1,0,.4,7.79A5.51,5.51,0,0,0,893.9,1544Z"/><path class="cls-3" d="M969.82,1553.59a4,4,0,1,0,.29,5.62A4,4,0,0,0,969.82,1553.59Z"/><path class="cls-3" d="M532.09,1396.62a2.37,2.37,0,1,0,.17,3.34A2.36,2.36,0,0,0,532.09,1396.62Z"/><path class="cls-3" d="M757.72,1321.23a6.28,6.28,0,1,0,.44,8.87A6.3,6.3,0,0,0,757.72,1321.23Z"/><path class="cls-3" d="M587.66,1251.67a3.78,3.78,0,1,0,.28,5.34A3.78,3.78,0,0,0,587.66,1251.67Z"/><path class="cls-3" d="M174.24,1160.92a5.77,5.77,0,1,0,.42,8.16A5.79,5.79,0,0,0,174.24,1160.92Z"/><path class="cls-3" d="M53.4,1138a5,5,0,1,0,.36,7.13A5,5,0,0,0,53.4,1138Z"/><path class="cls-3" d="M154.34,1246.7a5.32,5.32,0,1,0,.38,7.51A5.31,5.31,0,0,0,154.34,1246.7Z"/><path class="cls-3" d="M720.52,1449.13a8,8,0,1,0,.57,11.36A8,8,0,0,0,720.52,1449.13Z"/><path class="cls-3" d="M1232.67,1090.58a8.33,8.33,0,1,0,.6,11.77A8.33,8.33,0,0,0,1232.67,1090.58Z"/><path class="cls-3" d="M1230,1093.52a4.37,4.37,0,1,0,.3,6.16A4.37,4.37,0,0,0,1230,1093.52Z"/><path class="cls-3" d="M1231.94,1091.38a7.25,7.25,0,1,0,.52,10.24A7.23,7.23,0,0,0,1231.94,1091.38Z"/><path class="cls-3" d="M890.23,959.52a5.62,5.62,0,1,0,.41,7.94A5.64,5.64,0,0,0,890.23,959.52Z"/><path class="cls-3" d="M1232.06,1091.25a7.42,7.42,0,1,0,.54,10.49A7.42,7.42,0,0,0,1232.06,1091.25Z"/><path class="cls-3" d="M939.18,1243.24a2.33,2.33,0,1,0-3.12,3.46,2.33,2.33,0,1,0,3.12-3.46Z"/><path class="cls-3" d="M891.39,958.24a7.34,7.34,0,1,0,.52,10.37A7.36,7.36,0,0,0,891.39,958.24Z"/><path class="cls-3" d="M766.76,935.44a2.84,2.84,0,1,0,.2,4A2.85,2.85,0,0,0,766.76,935.44Z"/><path class="cls-3" d="M767.9,934.16a4.55,4.55,0,1,0,.33,6.44A4.56,4.56,0,0,0,767.9,934.16Z"/><path class="cls-3" d="M888.8,961.12A3.47,3.47,0,1,0,889,966,3.47,3.47,0,0,0,888.8,961.12Z"/><path class="cls-3" d="M939,1243.45a2.05,2.05,0,1,0,.14,2.89A2.06,2.06,0,0,0,939,1243.45Z"/><path class="cls-3" d="M980.35,1524.59a3.34,3.34,0,1,0,.24,4.72A3.33,3.33,0,0,0,980.35,1524.59Z"/><path class="cls-3" d="M890.84,958.84a6.53,6.53,0,1,0,.47,9.23A6.54,6.54,0,0,0,890.84,958.84Z"/><path class="cls-3" d="M943.32,1238.66a8.5,8.5,0,1,0,.6,12A8.48,8.48,0,0,0,943.32,1238.66Z"/><path class="cls-3" d="M891.62,958a7.67,7.67,0,1,0,.55,10.84A7.67,7.67,0,0,0,891.62,958Z"/><path class="cls-3" d="M766.5,935.73a2.45,2.45,0,1,0,.17,3.46A2.45,2.45,0,0,0,766.5,935.73Z"/><path class="cls-3" d="M981.94,1522.83a5.71,5.71,0,1,0,.41,8.07A5.72,5.72,0,0,0,981.94,1522.83Z"/><path class="cls-3" d="M767.57,934.53a4.06,4.06,0,1,0,.29,5.74A4.05,4.05,0,0,0,767.57,934.53Z"/><path class="cls-3" d="M845,1236.48a3.38,3.38,0,1,0,.25,4.78A3.38,3.38,0,0,0,845,1236.48Z"/><path class="cls-3" d="M649.23,1085.79a3.21,3.21,0,1,0,.23,4.53A3.21,3.21,0,0,0,649.23,1085.79Z"/><path class="cls-3" d="M498.76,1248.76a5.37,5.37,0,1,0,.39,7.6A5.38,5.38,0,0,0,498.76,1248.76Z"/><path class="cls-3" d="M844.93,1236.52a3.34,3.34,0,1,0,.24,4.72A3.34,3.34,0,0,0,844.93,1236.52Z"/><path class="cls-3" d="M574.15,1413.32a4.24,4.24,0,1,0,.3,6A4.24,4.24,0,0,0,574.15,1413.32Z"/><path class="cls-3" d="M573.8,1413.71a3.72,3.72,0,1,0,.27,5.25A3.73,3.73,0,0,0,573.8,1413.71Z"/><path class="cls-3" d="M777.69,1650.5a4.12,4.12,0,1,0,.29,5.81A4.12,4.12,0,0,0,777.69,1650.5Z"/><path class="cls-3" d="M385.31,1000.79a2.59,2.59,0,1,0,.19,3.65A2.58,2.58,0,0,0,385.31,1000.79Z"/><path class="cls-3" d="M341.48,907.5a6.32,6.32,0,1,0,.45,8.93A6.31,6.31,0,0,0,341.48,907.5Z"/><path class="cls-3" d="M388.26,997.51a7,7,0,1,0,.5,9.88A7,7,0,0,0,388.26,997.51Z"/><path class="cls-3" d="M339.91,909.24a4,4,0,1,0,.28,5.62A4,4,0,0,0,339.91,909.24Z"/><path class="cls-3" d="M385.87,1000.15a3.43,3.43,0,1,0,.25,4.85A3.43,3.43,0,0,0,385.87,1000.15Z"/><path class="cls-3" d="M779.49,1648.5a6.8,6.8,0,1,0,.49,9.62A6.8,6.8,0,0,0,779.49,1648.5Z"/><path class="cls-3" d="M574,1413.51a4,4,0,1,0,.28,5.63A4,4,0,0,0,574,1413.51Z"/><path class="cls-3" d="M421.59,1631.91A5,5,0,1,0,422,1639,5,5,0,0,0,421.59,1631.91Z"/><path class="cls-3" d="M326.62,1349.25a7.93,7.93,0,1,0,.56,11.19A7.92,7.92,0,0,0,326.62,1349.25Z"/><path class="cls-3" d="M497.94,1249.67a4.15,4.15,0,1,0,.3,5.86A4.14,4.14,0,0,0,497.94,1249.67Z"/><path class="cls-3" d="M340.49,908.59a4.85,4.85,0,1,0,.35,6.85A4.84,4.84,0,0,0,340.49,908.59Z"/><path class="cls-3" d="M573,1414.6a2.51,2.51,0,1,0,.18,3.55A2.51,2.51,0,0,0,573,1414.6Z"/></g><g class="cls-4"><polygon class="cls-3" points="1336.59 943.06 1195.18 960.97 964.88 1160.88 1336.59 965.6 1336.59 966.54 962.08 1163.29 961.61 1162.61 1194.72 960.26 1194.82 960.17 1336.59 942.21 1336.59 943.06"/><polygon class="cls-3" points="1336.59 942.21 1336.59 943.06 1195.05 960.99 1194.57 961.05 1195.67 900.35 1196.51 900.35 1195.43 960.1 1336.59 942.21"/><path class="cls-3" d="M1195.26,960.89,962.15,1163.24l-.62-.55,88.36-134.24.07-.1,144.86-68.16ZM963.91,1160.62l228.53-198.38L1050.52,1029Z"/><polygon class="cls-3" points="1028.68 900.35 1012.22 915.93 1194.59 960.04 1195.67 900.35 1196.51 900.35 1195.42 960.57 1195.4 961.1 1010.53 916.39 1027.46 900.35 1028.68 900.35"/><polygon class="cls-3" points="1007.6 900.35 1011.59 915.37 1027.46 900.35 1028.68 900.35 1011.15 916.94 1006.73 900.35 1007.6 900.35"/><path class="cls-3" d="M1195.09,960.16l1.16.28-145.84,68.62-.42.19-39.27-113.68Zm-1.35.53L1012,916.75l38.46,111.35Z"/><polygon class="cls-3" points="879.37 900.35 850.02 943.33 1010.85 915.82 1006.73 900.35 1007.6 900.35 1011.78 916.05 1011.9 916.5 849.18 944.33 848.21 944.5 878.35 900.35 879.37 900.35"/><polygon class="cls-3" points="832.43 900.35 849.22 943.03 878.35 900.35 879.36 900.35 849.46 944.15 849.01 944.81 831.53 900.35 832.43 900.35"/><path class="cls-3" d="M1050.93,1029.43l-203.3-85.68,163.67-28,.36-.07Zm-1.4-1.51-38.44-111.29L850.6,944.09Z"/><path class="cls-3" d="M1050.4,1028.28l.47.2-88.64,134.67-.39.61L848.74,944.1l-.54-1Zm-.79.58L850,944.76,961.93,1162.1Z"/><polygon class="cls-3" points="578.71 900.35 592.59 1048.03 848.1 943.88 759.91 900.35 761.81 900.35 849.3 943.54 850.13 943.95 592.38 1049.02 591.86 1049.22 577.86 900.35 578.71 900.35"/><path class="cls-3" d="M742.44,1227.15,591.91,1048.9l-.37-.45L849,943.53l.89-.36Zm-.29-1.63L848.38,944.67,592.92,1048.8Z"/><polygon class="cls-3" points="761.81 900.35 848.33 943.06 831.53 900.35 832.43 900.35 849.5 943.77 849.9 944.78 759.91 900.35 761.81 900.35"/><path class="cls-3" d="M743,1226.48l-136.86,65.25-.56.26-13.74-243.34-.07-1.26Zm-1.34-.3L592.72,1049.85l13.6,240.85Z"/><polygon class="cls-3" points="364.29 900.35 511.75 1035.79 545.45 900.35 546.31 900.35 512.22 1037.37 363.05 900.35 364.29 900.35"/><polygon class="cls-3" points="546.31 900.35 512.51 1036.23 591.76 1048.12 577.86 900.35 578.71 900.35 592.69 1049.11 511.93 1037 511.47 1036.93 545.45 900.35 546.31 900.35"/><path class="cls-3" d="M592.29,1048.21l.33.06,13.73,243.06-.81.16-94.19-255.43Zm-.47.77-79.19-11.88,92.72,251.48Z"/><polygon class="cls-3" points="350.51 900.35 216.65 1022.39 510.85 1036.11 363.05 900.35 364.29 900.35 512.27 1036.27 513.12 1037.05 215.6 1023.18 214.59 1023.13 349.27 900.35 350.51 900.35"/><path class="cls-3" d="M512,1036.16l1.51.07-245,131.63-.42.23L215,1022.31Zm-1.56.77L216.23,1023.2l52.32,143.69Z"/><path class="cls-3" d="M424.16,1384.9,268,1167.73l-.28-.38,244.09-131.14.84-.45Zm-.37-2,87.56-345.55L268.94,1167.63Z"/><polygon class="cls-3" points="173.64 900.35 215.81 1022.02 349.27 900.35 350.51 900.35 215.9 1023.07 215.43 1023.5 172.76 900.35 173.64 900.35"/><polygon class="cls-3" points="3.58 900.35 214.86 1021.83 172.76 900.35 173.64 900.35 216.38 1023.68 1.9 900.35 3.58 900.35"/><path class="cls-3" d="M424.71,1384.23l-245.35,39,88.56-255.86.27-.76Zm-1.47-.61L268.45,1168.39l-87.84,253.77Z"/><path class="cls-3" d="M268.72,1167.62l-88.34,255.2-.26.76-58.5-81.1L268,1167.22Zm-88.86,254.16,87.32-252.27-144.5,173Z"/><polygon class="cls-3" points="60.53 1097.39 60.15 1097.57 0 968.69 0 966.7 60.55 1096.44 214.72 1022.73 1.9 900.35 3.58 900.35 215.83 1022.4 216.52 1022.79 60.53 1097.39"/><path class="cls-3" d="M268.72,1167.35l.29.81L59.24,1097.07l156.2-74.69.42-.2Zm-1.09-.54-52.25-143.48L61.46,1096.94Z"/><path class="cls-3" d="M268.46,1167.09l.57.19-146.56,175.5-.53.63-62-246.31-.19-.74Zm-.85.6L61,1097.65l61.4,243.95Z"/><polygon class="cls-3" points="1336.59 1745.42 1199.92 1647.02 741.84 1630.94 1336.59 1793.15 1336.59 1794.02 738.13 1630.8 738.25 1629.97 1200.07 1646.18 1200.2 1646.19 1336.59 1744.38 1336.59 1745.42"/><polygon class="cls-3" points="1336.59 1505.82 1200.69 1646.54 1336.59 1744.38 1336.59 1745.42 1199.81 1646.94 1199.42 1646.66 1336.59 1504.61 1336.59 1505.82"/><path class="cls-3" d="M1200.19,1646.2l-.15.82-461.81-16.21-.09-.83,233.76-56.9.11,0Zm-3.14-.12L972,1573.92l-230.7,56.16Z"/><polygon class="cls-3" points="1336.59 1096.61 1155.1 1204.11 1336.59 1337.53 1336.59 1338.58 1154.08 1204.42 1153.57 1204.04 1336.59 1095.63 1336.59 1096.61"/><polygon class="cls-3" points="1336.59 1408.63 1044.99 1410.99 1200.12 1645.94 1336.59 1504.61 1336.59 1505.82 1200.36 1646.89 1200 1647.27 1043.87 1410.81 1043.44 1410.16 1336.59 1407.8 1336.59 1408.63"/><polygon class="cls-3" points="1336.59 1338.58 1154.47 1204.7 1044.92 1410.15 1336.59 1407.8 1336.59 1408.63 1044.22 1411 1043.52 1411 1153.96 1203.89 1154.19 1203.45 1336.59 1337.53 1336.59 1338.58"/><polygon class="cls-3" points="1336.59 1049.2 1219.47 900.35 1220.53 900.35 1336.59 1047.84 1336.59 1049.2"/><path class="cls-3" d="M1200.41,1646.37l.65,1-229.64-73.63,72.41-163.33.32-.71Zm-1.36-.53-154.76-234.39-71.71,161.78Z"/><polygon class="cls-3" points="1336.59 1095.63 1336.59 1096.61 1154.55 1204.44 1153.73 1204.92 1214.97 900.35 1215.82 900.35 1154.93 1203.24 1336.59 1095.63"/><polygon class="cls-3" points="1336.59 1049.2 1219.47 900.35 1220.53 900.35 1336.59 1047.84 1336.59 1049.2"/><polygon class="cls-3" points="1196.93 900.35 967.02 950.38 1154.12 1203.07 1214.97 900.35 1215.82 900.35 1154.75 1204.17 1154.56 1205.09 965.96 950.36 965.57 949.84 1192.98 900.35 1196.93 900.35"/><path class="cls-3" d="M1044.58,1410.78l-.21.4L837.93,1275.75l-.83-.54,317.15-71.54.89-.2Zm-.52-.8,109.48-205.29L839.21,1275.6Z"/><path class="cls-3" d="M1154.67,1203.83l.38.52-316.81,71.47-.77.17L965.91,950l.27-.71Zm-1.05,0L966.41,951,838.83,1274.82Z"/><polygon class="cls-3" points="965.2 900.35 966.7 949.6 1192.98 900.35 1196.93 900.35 966.39 950.52 965.89 950.63 964.36 900.35 965.2 900.35"/><path class="cls-3" d="M1044.44,1410.23l.31.19L972,1574.52,837.77,1275.58l-.58-1.32Zm-.75.5L839.12,1276.55,972,1572.46Z"/><path class="cls-3" d="M972.38,1573.31l.21.47-235,57.19,100.11-355.68.32-1.12Zm-1-.11L838.24,1276.63l-99.41,353.18Z"/><polygon class="cls-3" points="625.7 900.35 450.59 1127.78 837.43 1274.68 695.55 900.35 696.45 900.35 838.55 1275.25 838.87 1276.13 449.77 1128.35 449.24 1128.16 624.63 900.35 625.7 900.35"/><path class="cls-3" d="M839.2,1275.35l-406,200.8-.63.31,16.95-348.52,0-.58Zm-2.1.11-386.79-146.9-16.85,346.52Z"/><polygon class="cls-3" points="696.45 900.35 838.17 1274.24 965.74 950.35 833.96 900.35 836.32 900.35 966.44 949.72 966.84 949.87 838.14 1276.57 695.55 900.35 696.45 900.35"/><polygon class="cls-3" points="836.32 900.35 965.85 949.5 964.36 900.35 965.2 900.35 966.71 950.1 966.73 950.73 833.96 900.35 836.32 900.35"/><path class="cls-3" d="M433.42,1475.79l0,.55-216.23-68.1-.59-.19,233-280.36.81-1Zm-.81-.58,16.83-346L218,1407.63Z"/><polygon class="cls-3" points="364.38 900.35 374.68 1032.16 577.15 900.35 578.69 900.35 374.54 1033.24 373.95 1033.62 363.54 900.35 364.38 900.35"/><polygon class="cls-3" points="578.69 900.35 374.93 1032.99 449.92 1127.29 624.63 900.35 625.7 900.35 449.93 1128.65 373.98 1033.16 373.7 1032.79 577.15 900.35 578.69 900.35"/><path class="cls-3" d="M450.25,1127.7l.21.27L217.61,1408.11l-.71-.43,157-375,.27-.65Zm-.87.26-74.95-94.25-155.67,371.7Z"/><polygon class="cls-3" points="245.28 900.35 373.8 1031.78 363.54 900.35 364.38 900.35 374.73 1032.86 374.82 1034.01 244.11 900.35 245.28 900.35"/><polygon class="cls-3" points="0 934.96 0 934.09 372.95 1032.1 244.11 900.35 245.28 900.35 374.61 1032.6 375.67 1033.68 0 934.96"/><polygon class="cls-3" points="0 1274.75 0 1273.75 373.28 1033.06 0 934.96 0 934.09 374.42 1032.48 375.34 1032.72 0 1274.75"/><path class="cls-3" d="M1199,960.57a4,4,0,1,0-4,4A4,4,0,0,0,1199,960.57Z"/><circle class="cls-3" cx="961.88" cy="1162.92" r="6.91"/><path class="cls-3" d="M1203.67,960.57a8.68,8.68,0,1,0-8.68,8.67A8.68,8.68,0,0,0,1203.67,960.57Z"/><path class="cls-3" d="M1203.93,960.57a8.94,8.94,0,1,0-8.94,8.94A9,9,0,0,0,1203.93,960.57Z"/><path class="cls-3" d="M1056.53,1028.68a6.29,6.29,0,1,0-6.29,6.28A6.29,6.29,0,0,0,1056.53,1028.68Z"/><path class="cls-3" d="M966.71,1162.92a4.83,4.83,0,1,0-4.83,4.83A4.83,4.83,0,0,0,966.71,1162.92Z"/><path class="cls-3" d="M1014.89,916.16a3.52,3.52,0,1,0-3.52,3.52A3.51,3.51,0,0,0,1014.89,916.16Z"/><path class="cls-3" d="M1201.51,960.57a6.51,6.51,0,1,0-6.52,6.51A6.51,6.51,0,0,0,1201.51,960.57Z"/><path class="cls-3" d="M1024,916.16a12.6,12.6,0,1,0-12.6,12.61A12.6,12.6,0,0,0,1024,916.16Z"/><path class="cls-3" d="M1203.41,960.57A8.42,8.42,0,1,0,1195,969,8.41,8.41,0,0,0,1203.41,960.57Z"/><path class="cls-3" d="M1018.36,916.16a7,7,0,1,0-7,7A7,7,0,0,0,1018.36,916.16Z"/><path class="cls-3" d="M1058.2,1028.68a8,8,0,1,0-8,8A8,8,0,0,0,1058.2,1028.68Z"/><path class="cls-3" d="M861.73,943.92a12.62,12.62,0,1,0-12.62,12.61A12.63,12.63,0,0,0,861.73,943.92Z"/><path class="cls-3" d="M1019.09,916.16a7.72,7.72,0,1,0-7.72,7.71A7.72,7.72,0,0,0,1019.09,916.16Z"/><path class="cls-3" d="M856.05,943.92a6.94,6.94,0,1,0-6.94,6.94A6.93,6.93,0,0,0,856.05,943.92Z"/><path class="cls-3" d="M1020.89,916.16a9.52,9.52,0,1,0-9.52,9.52A9.53,9.53,0,0,0,1020.89,916.16Z"/><path class="cls-3" d="M856.48,943.92a7.37,7.37,0,1,0-7.37,7.36A7.36,7.36,0,0,0,856.48,943.92Z"/><path class="cls-3" d="M1053,1028.68a2.73,2.73,0,1,0-2.73,2.73A2.72,2.72,0,0,0,1053,1028.68Z"/><path class="cls-3" d="M1053.84,1028.68a3.6,3.6,0,1,0-3.6,3.6A3.6,3.6,0,0,0,1053.84,1028.68Z"/><circle class="cls-3" cx="849.11" cy="943.92" r="6.04"/><path class="cls-3" d="M967,1162.92a5.07,5.07,0,1,0-5.07,5.08A5.07,5.07,0,0,0,967,1162.92Z"/><path class="cls-3" d="M854.25,943.92a5.14,5.14,0,1,0-5.14,5.13A5.13,5.13,0,0,0,854.25,943.92Z"/><path class="cls-3" d="M596.06,1048.62a3.83,3.83,0,1,0-3.83,3.83A3.84,3.84,0,0,0,596.06,1048.62Z"/><path class="cls-3" d="M853.42,943.92a4.31,4.31,0,1,0-4.31,4.3A4.31,4.31,0,0,0,853.42,943.92Z"/><circle class="cls-3" cx="592.23" cy="1048.62" r="5.1"/><path class="cls-3" d="M747,1226.34a4.68,4.68,0,1,0-4.69,4.67A4.69,4.69,0,0,0,747,1226.34Z"/><path class="cls-3" d="M853,943.92a3.89,3.89,0,1,0-3.89,3.88A3.89,3.89,0,0,0,853,943.92Z"/><path class="cls-3" d="M752.32,1226.34a10,10,0,1,0-10,10A10,10,0,0,0,752.32,1226.34Z"/><path class="cls-3" d="M595.52,1048.62a3.29,3.29,0,1,0-3.29,3.3A3.3,3.3,0,0,0,595.52,1048.62Z"/><path class="cls-3" d="M609.45,1291.35a3.52,3.52,0,1,0-3.52,3.51A3.51,3.51,0,0,0,609.45,1291.35Z"/><path class="cls-3" d="M521.32,1036.58a9.33,9.33,0,1,0-9.33,9.34A9.33,9.33,0,0,0,521.32,1036.58Z"/><path class="cls-3" d="M523.12,1036.58A11.13,11.13,0,1,0,512,1047.71,11.13,11.13,0,0,0,523.12,1036.58Z"/><path class="cls-3" d="M599.12,1048.62a6.9,6.9,0,1,0-6.89,6.9A6.9,6.9,0,0,0,599.12,1048.62Z"/><path class="cls-3" d="M596.62,1048.62a4.39,4.39,0,1,0-4.39,4.4A4.39,4.39,0,0,0,596.62,1048.62Z"/><path class="cls-3" d="M519.6,1036.58a7.62,7.62,0,1,0-7.61,7.62A7.61,7.61,0,0,0,519.6,1036.58Z"/><path class="cls-3" d="M612.93,1291.35a7,7,0,1,0-7,7A7,7,0,0,0,612.93,1291.35Z"/><path class="cls-3" d="M522.13,1036.58A10.14,10.14,0,1,0,512,1046.72,10.13,10.13,0,0,0,522.13,1036.58Z"/><path class="cls-3" d="M224.11,1022.76a8.49,8.49,0,1,0-8.49,8.49A8.5,8.5,0,0,0,224.11,1022.76Z"/><path class="cls-3" d="M518.05,1036.58a6.06,6.06,0,1,0-6.06,6.06A6.06,6.06,0,0,0,518.05,1036.58Z"/><path class="cls-3" d="M219.89,1022.76a4.27,4.27,0,1,0-4.27,4.27A4.27,4.27,0,0,0,219.89,1022.76Z"/><path class="cls-3" d="M272.06,1167.49a3.74,3.74,0,1,0-3.74,3.73A3.73,3.73,0,0,0,272.06,1167.49Z"/><path class="cls-3" d="M523.6,1036.58A11.62,11.62,0,1,0,512,1048.2,11.61,11.61,0,0,0,523.6,1036.58Z"/><path class="cls-3" d="M270.63,1167.49a2.31,2.31,0,1,0-2.31,2.31A2.33,2.33,0,0,0,270.63,1167.49Z"/><path class="cls-3" d="M428.93,1383.92a5,5,0,1,0-5,4.95A4.95,4.95,0,0,0,428.93,1383.92Z"/><path class="cls-3" d="M222.76,1022.76a7.14,7.14,0,1,0-7.14,7.13A7.14,7.14,0,0,0,222.76,1022.76Z"/><path class="cls-3" d="M218.9,1022.76a3.28,3.28,0,1,0-3.28,3.28A3.28,3.28,0,0,0,218.9,1022.76Z"/><path class="cls-3" d="M430.69,1383.92a6.72,6.72,0,1,0-6.72,6.72A6.71,6.71,0,0,0,430.69,1383.92Z"/><path class="cls-3" d="M274,1167.49a5.65,5.65,0,1,0-5.65,5.65A5.66,5.66,0,0,0,274,1167.49Z"/><path class="cls-3" d="M184.59,1422.69a4.61,4.61,0,1,0-4.6,4.6A4.6,4.6,0,0,0,184.59,1422.69Z"/><path class="cls-3" d="M272.06,1167.49a3.74,3.74,0,1,0-3.74,3.74A3.73,3.73,0,0,0,272.06,1167.49Z"/><path class="cls-3" d="M129.19,1342.5a7,7,0,1,0-7,7A7,7,0,0,0,129.19,1342.5Z"/><path class="cls-3" d="M185.07,1422.69a5.08,5.08,0,1,0-5.08,5.08A5.08,5.08,0,0,0,185.07,1422.69Z"/><path class="cls-3" d="M220.26,1022.76a4.64,4.64,0,1,0-4.64,4.63A4.64,4.64,0,0,0,220.26,1022.76Z"/><path class="cls-3" d="M69.25,1097a8.9,8.9,0,1,0-8.9,8.89A8.89,8.89,0,0,0,69.25,1097Z"/><path class="cls-3" d="M223.64,1022.76a8,8,0,1,0-8,8A8,8,0,0,0,223.64,1022.76Z"/><path class="cls-3" d="M66.3,1097a6,6,0,1,0-5.95,6A5.95,5.95,0,0,0,66.3,1097Z"/><path class="cls-3" d="M272.94,1167.49a4.62,4.62,0,1,0-4.62,4.62A4.62,4.62,0,0,0,272.94,1167.49Z"/><circle class="cls-3" cx="268.32" cy="1167.49" r="6.45"/><path class="cls-3" d="M70.62,1097a10.27,10.27,0,1,0-10.27,10.26A10.27,10.27,0,0,0,70.62,1097Z"/><path class="cls-3" d="M126.74,1342.5a4.59,4.59,0,1,0-4.59,4.6A4.6,4.6,0,0,0,126.74,1342.5Z"/><path class="cls-3" d="M1206.53,1646.6a6.48,6.48,0,1,0-6.47,6.49A6.48,6.48,0,0,0,1206.53,1646.6Z"/><ellipse class="cls-3" cx="738.24" cy="1630.39" rx="6.49" ry="6.5"/><path class="cls-3" d="M1207.14,1646.6a7.09,7.09,0,1,0-7.08,7.09A7.08,7.08,0,0,0,1207.14,1646.6Z"/><path class="cls-3" d="M1205.47,1646.6a5.42,5.42,0,1,0-5.41,5.42A5.42,5.42,0,0,0,1205.47,1646.6Z"/><path class="cls-3" d="M979.26,1573.49a7.26,7.26,0,1,0-7.26,7.26A7.26,7.26,0,0,0,979.26,1573.49Z"/><path class="cls-3" d="M745.35,1630.39a7.12,7.12,0,1,0-7.11,7.11A7.12,7.12,0,0,0,745.35,1630.39Z"/><path class="cls-3" d="M1160.66,1204.08a6.33,6.33,0,1,0-6.33,6.33A6.32,6.32,0,0,0,1160.66,1204.08Z"/><path class="cls-3" d="M1047.16,1410.57a2.94,2.94,0,1,0-3,3A2.95,2.95,0,0,0,1047.16,1410.57Z"/><ellipse class="cls-3" cx="1200.06" cy="1646.6" rx="7.14" ry="7.14"/><path class="cls-3" d="M1161,1204.08a6.7,6.7,0,1,0-6.7,6.69A6.7,6.7,0,0,0,1161,1204.08Z"/><path class="cls-3" d="M1048,1410.57a3.83,3.83,0,1,0-3.83,3.83A3.82,3.82,0,0,0,1048,1410.57Z"/><path class="cls-3" d="M1218.39,900.35a5.13,5.13,0,0,1-4.11,0Z"/><path class="cls-3" d="M1208.5,1646.6a8.45,8.45,0,1,0-8.44,8.44A8.44,8.44,0,0,0,1208.5,1646.6Z"/><path class="cls-3" d="M1054.93,1410.57a10.71,10.71,0,1,0-10.72,10.72A10.72,10.72,0,0,0,1054.93,1410.57Z"/><path class="cls-3" d="M974.67,1573.49a2.68,2.68,0,1,0-2.67,2.67A2.67,2.67,0,0,0,974.67,1573.49Z"/><path class="cls-3" d="M1161,1204.08a6.7,6.7,0,1,0-6.7,6.7A6.7,6.7,0,0,0,1161,1204.08Z"/><circle class="cls-3" cx="1154.33" cy="1204.08" r="7.93"/><path class="cls-3" d="M1221.4,900.35a6.86,6.86,0,0,1-10.14,0Z"/><path class="cls-3" d="M969.31,950.11a3,3,0,1,0-3,3A3,3,0,0,0,969.31,950.11Z"/><path class="cls-3" d="M1164.93,1204.08a10.6,10.6,0,1,0-10.6,10.58A10.59,10.59,0,0,0,1164.93,1204.08Z"/><path class="cls-3" d="M848.79,1275.4A10.64,10.64,0,1,0,838.15,1286,10.63,10.63,0,0,0,848.79,1275.4Z"/><path class="cls-3" d="M1051.29,1410.57a7.08,7.08,0,1,0-7.08,7.08A7.07,7.07,0,0,0,1051.29,1410.57Z"/><path class="cls-3" d="M1161,1204.08a6.69,6.69,0,1,0-6.69,6.68A6.68,6.68,0,0,0,1161,1204.08Z"/><path class="cls-3" d="M975.27,950.11a9,9,0,1,0-9,9A9,9,0,0,0,975.27,950.11Z"/><path class="cls-3" d="M842.18,1275.4a4,4,0,1,0-4,4A4,4,0,0,0,842.18,1275.4Z"/><path class="cls-3" d="M974.28,950.11a8,8,0,1,0-8,8A8,8,0,0,0,974.28,950.11Z"/><path class="cls-3" d="M1051.26,1410.57a7,7,0,1,0-7,7A7,7,0,0,0,1051.26,1410.57Z"/><circle class="cls-3" cx="838.15" cy="1275.4" r="5.57"/><path class="cls-3" d="M976.35,1573.49a4.35,4.35,0,1,0-4.35,4.34A4.35,4.35,0,0,0,976.35,1573.49Z"/><path class="cls-3" d="M974.08,1573.49a2.08,2.08,0,1,0-2.08,2.08A2.08,2.08,0,0,0,974.08,1573.49Z"/><path class="cls-3" d="M847.4,1275.4a9.25,9.25,0,1,0-9.25,9.26A9.25,9.25,0,0,0,847.4,1275.4Z"/><path class="cls-3" d="M747.5,1630.39a9.27,9.27,0,1,0-9.26,9.27A9.26,9.26,0,0,0,747.5,1630.39Z"/><path class="cls-3" d="M842.23,1275.4a4.08,4.08,0,1,0-4.08,4.08A4.08,4.08,0,0,0,842.23,1275.4Z"/><path class="cls-3" d="M455.91,1128a6,6,0,1,0-6,6A6,6,0,0,0,455.91,1128Z"/><path class="cls-3" d="M847.63,1275.4a9.48,9.48,0,1,0-9.48,9.49A9.47,9.47,0,0,0,847.63,1275.4Z"/><path class="cls-3" d="M452.9,1128a3,3,0,1,0-3,3A3,3,0,0,0,452.9,1128Z"/><path class="cls-3" d="M440.45,1475.77a7.45,7.45,0,1,0-7.45,7.45A7.45,7.45,0,0,0,440.45,1475.77Z"/><path class="cls-3" d="M979.32,950.11a13,13,0,1,0-13,13A13,13,0,0,0,979.32,950.11Z"/><path class="cls-3" d="M845,1275.4a6.86,6.86,0,1,0-6.86,6.86A6.86,6.86,0,0,0,845,1275.4Z"/><path class="cls-3" d="M971.49,950.11a5.2,5.2,0,1,0-5.19,5.2A5.2,5.2,0,0,0,971.49,950.11Z"/><path class="cls-3" d="M439.73,1475.77a6.73,6.73,0,1,0-6.73,6.73A6.74,6.74,0,0,0,439.73,1475.77Z"/><path class="cls-3" d="M452.54,1128a2.62,2.62,0,1,0-2.62,2.62A2.62,2.62,0,0,0,452.54,1128Z"/><circle class="cls-3" cx="217.29" cy="1407.84" r="4.27"/><path class="cls-3" d="M380.46,1032.9a6.15,6.15,0,1,0-6.15,6.14A6.15,6.15,0,0,0,380.46,1032.9Z"/><path class="cls-3" d="M379.33,1032.9a5,5,0,1,0-5,5A5,5,0,0,0,379.33,1032.9Z"/><path class="cls-3" d="M460.78,1128a10.86,10.86,0,1,0-10.86,10.86A10.86,10.86,0,0,0,460.78,1128Z"/><path class="cls-3" d="M459.73,1128a9.82,9.82,0,1,0-9.81,9.81A9.81,9.81,0,0,0,459.73,1128Z"/><path class="cls-3" d="M377.69,1032.9a3.38,3.38,0,1,0-3.38,3.37A3.38,3.38,0,0,0,377.69,1032.9Z"/><path class="cls-3" d="M224.58,1407.84a7.29,7.29,0,1,0-7.29,7.3A7.29,7.29,0,0,0,224.58,1407.84Z"/><path class="cls-3" d="M378.62,1032.9a4.31,4.31,0,1,0-4.31,4.3A4.31,4.31,0,0,0,378.62,1032.9Z"/><path class="cls-3" d="M378.58,1032.9a4.27,4.27,0,1,0-4.27,4.26A4.28,4.28,0,0,0,378.58,1032.9Z"/><path class="cls-3" d="M380.84,1032.9a6.53,6.53,0,1,0-6.53,6.52A6.53,6.53,0,0,0,380.84,1032.9Z"/></g></g></g></svg>