<svg xmlns="http://www.w3.org/2000/svg" viewBox="0 0 120 162.29"><defs><style>.cls-1{isolation:isolate;}.cls-2{opacity:0.96;mix-blend-mode:screen;}.cls-3{fill:#fff;}</style></defs><title>github-site-BG</title><g class="cls-1"><g id="Layer_1" data-name="Layer 1"><g class="cls-2"><polygon class="cls-3" points="110.28 85 110.17 79.38 111.61 85 111.67 85 110.16 79.11 110.1 79.12 110.22 85 110.28 85"/><polygon class="cls-3" points="108.64 85 110.11 79.34 110.22 85 110.28 85 110.16 79.12 110.1 79.11 108.58 85 108.64 85"/><polygon class="cls-3" points="89.66 85 93.35 83.61 93.02 85 93.08 85 93.42 83.57 93.44 83.51 89.49 85 89.66 85"/><polygon class="cls-3" points="94.34 85 93.47 83.63 96.4 85 96.54 85 93.31 83.49 94.27 85 94.34 85"/><path class="cls-3" d="M93.44,83.61,73,75.48l0,0L86.76,65.18l0,0ZM73.07,75.47l20.27,8L86.73,65.27Z"/><path class="cls-3" d="M93.39,83.63,86.71,65.2h0l16.39-.54,0,0Zm-6.6-18.38L93.4,83.49,103,64.71Z"/><polygon class="cls-3" points="76.49 85 73.06 75.53 93.31 83.56 89.49 85 89.66 85 93.48 83.56 73.02 75.45 72.96 75.42 76.42 85 76.49 85"/><polygon class="cls-3" points="64.74 85 66.63 71.7 72.97 75.48 66.62 85 66.69 85 73.05 75.47 66.58 71.6 64.68 85 64.74 85"/><path class="cls-3" d="M86.66,65.26l13.41-10.81v0l3,10.22h0ZM100,54.55,86.84,65.19l16.21-.54Z"/><polygon class="cls-3" points="28.9 85 31.68 71.38 39.7 85 39.77 85 31.65 71.22 28.84 85 28.9 85"/><path class="cls-3" d="M49.06,84.23l-.05,0L50.87,64.6l0,0,7,5.16v0Zm1.86-19.52L49.08,84.09l8.75-14.28Z"/><path class="cls-3" d="M49.06,84.27l0,0L31.6,71.29l19.33-6.68v0Zm-17.33-13L49,84.16l1.85-19.47Z"/><path class="cls-3" d="M73.06,75.54l-6.49-3.87v0l1-11.43h.06Zm-6.43-3.9L73,75.41l-5.34-15Z"/><path class="cls-3" d="M31.61,71.35,36,61.84l15,2.8ZM36,61.9l-4.27,9.35,19.06-6.59Z"/><path class="cls-3" d="M82.39,61.7,67.6,46.78l10.1-4.1v0ZM67.7,46.8,82.28,61.51,77.66,42.76Z"/><path class="cls-3" d="M82.33,61.68l0-.07L77.65,42.7l18.72-2.09,0,0ZM77.72,42.75l4.63,18.78,13.9-20.85Z"/><path class="cls-3" d="M21.28,81.85l-6-20.69L31.71,71.3l0,0ZM15.35,61.29l6,20.44L31.62,71.31Z"/><path class="cls-3" d="M50.91,64.76l-4.15-9.49,5.81-2.11v.05ZM46.84,55.3l4,9.24L52.5,53.25Z"/><path class="cls-3" d="M15.29,61.31,13.5,53.54h0l9.61-8.6.05,0Zm-1.72-7.75,1.74,7.57,7.75-16.06Z"/><path class="cls-3" d="M77.63,42.76,86.83,26l0,0,9.5,14.6Zm9.2-16.62L77.74,42.69l18.52-2.07Z"/><path class="cls-3" d="M36,61.9H36l-20.72-.65,0,0L23.15,44.9Zm-20.7-.71,20.57.65L23.16,45Z"/><path class="cls-3" d="M77.71,42.77,64.14,35.19l0,0L80,26.79v.06ZM64.27,35.19l13.39,7.49L79.89,26.9Z"/><polygon class="cls-3" points="120 84.77 110.23 67.41 120 69.97 120 69.9 110.11 67.32 120 84.89 120 84.77"/><polygon class="cls-3" points="120 64.16 110.24 67.31 120 51.8 120 51.69 110.14 67.35 110.1 67.42 120 64.22 120 64.16"/><path class="cls-3" d="M79.55,79.36v0L84.16,54l26.08,13.35ZM84.2,54.1,79.63,79.27,110.1,67.36Z"/><path class="cls-3" d="M110.22,67.42l-.06,0-26-13.32,0,0,17.38-17.31v.05Zm-26-13.37,25.89,13.26-8.61-30.47Z"/><polygon class="cls-3" points="90.75 85 79.66 79.32 110.11 67.42 101.38 85 101.45 85 110.19 67.38 110.23 67.31 79.58 79.28 79.52 79.31 90.62 85 90.75 85"/><polygon class="cls-3" points="71.03 85 68.72 81.68 79.56 79.35 80.48 85 80.55 85 79.62 79.31 79.61 79.28 68.66 81.63 68.62 81.64 70.96 85 71.03 85"/><path class="cls-3" d="M79.62,79.32h-.06L75.62,54.57l8.6-.54v0Zm-3.93-24.7,3.9,24.52,4.55-25Z"/><path class="cls-3" d="M58.09,68.18l0,0L44.39,53.33h.07l31.28,1.24ZM44.53,53.39,58.1,68.1,75.58,54.62Z"/><path class="cls-3" d="M75.76,54.63,44.41,53.39l0,0,6.85-14.73,0,0ZM44.5,53.33l31.05,1.23L51.3,38.71Z"/><path class="cls-3" d="M75.7,54.66l-.06,0L51.25,38.67l0,0L69.59,17.31Zm-24.36-16L75.62,54.54l-6.07-37.1Z"/><path class="cls-3" d="M34.38,75.86l0-.06,10-22.49,13.7,14.84,0,0ZM44.46,53.41l-10,22.35L58,68.12Z"/><path class="cls-3" d="M34.45,75.85,15.82,66.66l0,0L44.51,53.3l0,.07ZM16,66.66l18.47,9.11,10-22.35Z"/><path class="cls-3" d="M51.27,38.68,37.51,19h0L44.36,11v.06l7,27.56ZM37.59,19,51.22,38.51,44.33,11.16Z"/><path class="cls-3" d="M28.8,44.21l0-.05,8.72-25.24,0,0L51.34,38.68Zm8.76-25.16L28.89,44.13l22.35-5.49Z"/><path class="cls-3" d="M110.46,79.48a.49.49,0,1,1-.65-.72.49.49,0,0,1,.65.72Z"/><path class="cls-3" d="M110.36,79.37a.34.34,0,1,1-.45-.5.32.32,0,0,1,.47,0A.34.34,0,0,1,110.36,79.37Z"/><path class="cls-3" d="M94,84.22a.88.88,0,0,1-1.25-.06.9.9,0,0,1,.06-1.26A.89.89,0,0,1,94,84.22Z"/><path class="cls-3" d="M93.74,84a.52.52,0,0,1-.73,0,.52.52,0,0,1,.77-.7A.53.53,0,0,1,93.74,84Z"/><path class="cls-3" d="M93.68,83.88a.44.44,0,0,1-.6,0,.43.43,0,0,1,0-.6.42.42,0,0,1,.6,0A.43.43,0,0,1,93.68,83.88Z"/><path class="cls-3" d="M93.64,83.83a.36.36,0,0,1-.51,0,.35.35,0,0,1,0-.51.36.36,0,0,1,.49.54Z"/><path class="cls-3" d="M73.28,75.78a.41.41,0,1,1,0-.58A.41.41,0,0,1,73.28,75.78Z"/><path class="cls-3" d="M93.6,83.79a.3.3,0,0,1-.43,0,.3.3,0,0,1,0-.42.29.29,0,0,1,.43,0A.31.31,0,0,1,93.6,83.79Z"/><path class="cls-3" d="M87,65.49a.36.36,0,0,1-.51,0,.35.35,0,0,1,0-.5.36.36,0,0,1,.5,0A.35.35,0,0,1,87,65.49Z"/><path class="cls-3" d="M93.58,83.76a.26.26,0,0,1-.39,0,.27.27,0,0,1,0-.38.28.28,0,0,1,.39,0A.27.27,0,0,1,93.58,83.76Z"/><path class="cls-3" d="M49.14,84.32a.14.14,0,0,1-.21,0,.13.13,0,0,1,0-.2.15.15,0,0,1,.21,0A.14.14,0,0,1,49.14,84.32Z"/><path class="cls-3" d="M58.06,70a.29.29,0,0,1-.41,0,.3.3,0,0,1,0-.42.29.29,0,0,1,.41,0A.3.3,0,0,1,58.06,70Z"/><path class="cls-3" d="M66.74,71.81a.21.21,0,0,1-.28-.31.21.21,0,0,1,.3,0A.22.22,0,0,1,66.74,71.81Z"/><path class="cls-3" d="M86.9,65.4a.23.23,0,0,1-.31-.35.24.24,0,0,1,.33,0A.23.23,0,0,1,86.9,65.4Z"/><path class="cls-3" d="M21.68,82.22a.58.58,0,1,1-.77-.86.58.58,0,0,1,.77.86Z"/><path class="cls-3" d="M67.71,60.36a.18.18,0,0,1-.25,0,.17.17,0,0,1,0-.24.18.18,0,0,1,.25,0A.18.18,0,0,1,67.71,60.36Z"/><path class="cls-3" d="M87.07,65.58a.48.48,0,0,1-.68,0,.49.49,0,1,1,.72-.65A.48.48,0,0,1,87.07,65.58Z"/><path class="cls-3" d="M51.55,65.38A1,1,0,1,1,51.62,64,1,1,0,0,1,51.55,65.38Z"/><path class="cls-3" d="M58.09,70.05a.32.32,0,0,1-.47,0,.34.34,0,0,1,0-.48.34.34,0,1,1,.45.5Z"/><path class="cls-3" d="M32,71.7a.54.54,0,1,1,0-.76A.54.54,0,0,1,32,71.7Z"/><path class="cls-3" d="M32.26,72A.89.89,0,0,1,31,71.89a.88.88,0,0,1,1.31-1.18A.89.89,0,0,1,32.26,72Z"/><path class="cls-3" d="M67,72.08a.58.58,0,1,1,0-.82A.57.57,0,0,1,67,72.08Z"/><path class="cls-3" d="M36.21,62.13a.34.34,0,0,1-.49,0,.35.35,0,0,1,0-.49.35.35,0,1,1,.47.52Z"/><path class="cls-3" d="M51.27,65.07a.56.56,0,1,1-.75-.84.56.56,0,0,1,.79,0A.57.57,0,0,1,51.27,65.07Z"/><path class="cls-3" d="M11.18,82.2a.25.25,0,0,1-.35,0,.25.25,0,0,1,0-.34.24.24,0,0,1,.33.36Z"/><path class="cls-3" d="M67.75,60.4a.23.23,0,0,1-.33,0,.24.24,0,0,1,0-.33.25.25,0,0,1,.33,0A.24.24,0,0,1,67.75,60.4Z"/><path class="cls-3" d="M82.62,61.92a.42.42,0,0,1-.6,0,.44.44,0,0,1,0-.6.42.42,0,1,1,.57.63Z"/><path class="cls-3" d="M51.08,64.86a.28.28,0,0,1-.4,0,.28.28,0,1,1,.42-.38A.27.27,0,0,1,51.08,64.86Z"/><path class="cls-3" d="M67.94,60.61a.52.52,0,0,1-.74,0,.53.53,0,0,1,0-.74.52.52,0,1,1,.7.77Z"/><path class="cls-3" d="M21.64,82.18a.52.52,0,0,1-.7-.78.53.53,0,0,1,.74,0A.52.52,0,0,1,21.64,82.18Z"/><path class="cls-3" d="M15.76,61.74a.7.7,0,0,1-1-.05.7.7,0,1,1,1,.05Z"/><path class="cls-3" d="M36.2,62.12a.33.33,0,0,1-.47,0,.32.32,0,0,1,0-.47.33.33,0,0,1,.47,0A.32.32,0,0,1,36.2,62.12Z"/><path class="cls-3" d="M15.58,61.54a.42.42,0,0,1-.6,0,.43.43,0,0,1,.64-.58A.44.44,0,0,1,15.58,61.54Z"/><path class="cls-3" d="M36.5,62.45a.78.78,0,1,1-1-1.16.78.78,0,1,1,1,1.16Z"/><path class="cls-3" d="M67.93,60.6a.51.51,0,1,1,0-.71A.5.5,0,0,1,67.93,60.6Z"/><path class="cls-3" d="M51.18,65a.43.43,0,0,1-.6,0,.42.42,0,0,1,.63-.57A.43.43,0,0,1,51.18,65Z"/><path class="cls-3" d="M52.83,53.53a.44.44,0,1,1,0-.62A.44.44,0,0,1,52.83,53.53Z"/><path class="cls-3" d="M23.48,45.31a.48.48,0,0,1-.69,0,.49.49,0,1,1,.72-.65A.48.48,0,0,1,23.48,45.31Z"/><path class="cls-3" d="M96.63,41a.47.47,0,1,1,0-.66A.47.47,0,0,1,96.63,41Z"/><path class="cls-3" d="M78,43a.41.41,0,0,1-.56,0,.4.4,0,1,1,.59-.53A.41.41,0,0,1,78,43Z"/><path class="cls-3" d="M23.42,45.25a.4.4,0,1,1,0-.56A.41.41,0,0,1,23.42,45.25Z"/><path class="cls-3" d="M80.25,27.22a.5.5,0,1,1,0-.7A.49.49,0,0,1,80.25,27.22Z"/><path class="cls-3" d="M87.07,26.35a.36.36,0,0,1-.48-.53.36.36,0,0,1,.51,0A.35.35,0,0,1,87.07,26.35Z"/><path class="cls-3" d="M47.77,40.44a.21.21,0,1,1-.28-.31.22.22,0,0,1,.3,0A.21.21,0,0,1,47.77,40.44Z"/><path class="cls-3" d="M68,47.21a.57.57,0,0,1-.8,0,.56.56,0,0,1,0-.79.57.57,0,0,1,.8,0A.56.56,0,0,1,68,47.21Z"/><path class="cls-3" d="M52.76,53.46a.34.34,0,1,1,0-.48A.35.35,0,0,1,52.76,53.46Z"/><path class="cls-3" d="M15.64,61.61a.52.52,0,0,1-.69-.77.51.51,0,0,1,.73,0A.52.52,0,0,1,15.64,61.61Z"/><path class="cls-3" d="M4.79,63.66a.45.45,0,0,1-.64,0,.46.46,0,0,1,0-.64.47.47,0,0,1,.64,0A.46.46,0,0,1,4.79,63.66Z"/><path class="cls-3" d="M13.86,53.9a.47.47,0,1,1-.64-.7.47.47,0,0,1,.67,0A.47.47,0,0,1,13.86,53.9Z"/><path class="cls-3" d="M64.69,35.73a.73.73,0,0,1-1,0,.72.72,0,1,1,1.07-1A.73.73,0,0,1,64.69,35.73Z"/><path class="cls-3" d="M110.67,67.92a.75.75,0,1,1-1-1.11.75.75,0,0,1,1,1.11Z"/><path class="cls-3" d="M110.43,67.66a.39.39,0,0,1-.55,0,.39.39,0,0,1,.58-.53A.41.41,0,0,1,110.43,67.66Z"/><path class="cls-3" d="M110.6,67.85a.64.64,0,0,1-.91,0,.66.66,0,0,1,0-.92.65.65,0,0,1,.87,1Z"/><path class="cls-3" d="M79.93,79.69a.52.52,0,0,1-.72,0A.51.51,0,0,1,80,79,.52.52,0,0,1,79.93,79.69Z"/><path class="cls-3" d="M110.62,67.86a.67.67,0,1,1,0-.94A.67.67,0,0,1,110.62,67.86Z"/><path class="cls-3" d="M84.32,54.21a.21.21,0,0,1-.3,0,.21.21,0,1,1,.32-.28A.21.21,0,0,1,84.32,54.21Z"/><path class="cls-3" d="M80,79.8a.66.66,0,1,1-.88-1,.66.66,0,1,1,.88,1Z"/><path class="cls-3" d="M68.84,81.85a.25.25,0,1,1,0-.36A.26.26,0,0,1,68.84,81.85Z"/><path class="cls-3" d="M68.94,82a.39.39,0,0,1-.57,0,.4.4,0,0,1,0-.57.41.41,0,0,1,.58,0A.4.4,0,0,1,68.94,82Z"/><path class="cls-3" d="M79.8,79.54a.31.31,0,0,1-.42-.46.31.31,0,1,1,.42.46Z"/><path class="cls-3" d="M84.3,54.2a.18.18,0,1,1,0-.26A.19.19,0,0,1,84.3,54.2Z"/><path class="cls-3" d="M88,29a.3.3,0,0,1-.43,0,.3.3,0,0,1,0-.42A.3.3,0,0,1,88,29Z"/><path class="cls-3" d="M80,79.75a.59.59,0,1,1-.79-.87.59.59,0,0,1,.79.87Z"/><path class="cls-3" d="M84.69,54.63a.76.76,0,1,1,.06-1.08A.77.77,0,0,1,84.69,54.63Z"/><path class="cls-3" d="M80.05,79.82a.68.68,0,0,1-1,0,.69.69,0,0,1,0-1,.7.7,0,0,1,1,0A.69.69,0,0,1,80.05,79.82Z"/><path class="cls-3" d="M68.82,81.82a.22.22,0,0,1-.3-.32.22.22,0,0,1,.3.32Z"/><path class="cls-3" d="M88.16,29.11a.52.52,0,0,1-.73,0,.53.53,0,0,1,0-.73.52.52,0,0,1,.73,0A.51.51,0,0,1,88.16,29.11Z"/><path class="cls-3" d="M68.91,81.93a.35.35,0,0,1-.51,0,.36.36,0,0,1,0-.51.36.36,0,1,1,.49.54Z"/><path class="cls-3" d="M75.86,54.82a.3.3,0,1,1,0-.43A.31.31,0,0,1,75.86,54.82Z"/><path class="cls-3" d="M58.29,68.35a.29.29,0,0,1-.39-.43.31.31,0,0,1,.41,0A.29.29,0,0,1,58.29,68.35Z"/><path class="cls-3" d="M44.78,53.72a.49.49,0,1,1,0-.68A.48.48,0,0,1,44.78,53.72Z"/><path class="cls-3" d="M75.86,54.82a.31.31,0,0,1-.43,0,.3.3,0,0,1,0-.43.3.3,0,0,1,.42,0A.31.31,0,0,1,75.86,54.82Z"/><path class="cls-3" d="M51.55,38.94a.38.38,0,1,1-.51-.56.38.38,0,0,1,.51.56Z"/><path class="cls-3" d="M51.52,38.91a.35.35,0,0,1-.48,0,.35.35,0,0,1,0-.48.33.33,0,0,1,.47,0A.34.34,0,0,1,51.52,38.91Z"/><path class="cls-3" d="M69.82,17.65a.37.37,0,1,1-.49-.55.37.37,0,0,1,.49.55Z"/><path class="cls-3" d="M34.59,76a.22.22,0,0,1-.32,0,.23.23,0,0,1,.34-.32A.23.23,0,0,1,34.59,76Z"/><path class="cls-3" d="M30.66,84.36a.57.57,0,0,1-.76-.84.56.56,0,0,1,.8,0A.57.57,0,0,1,30.66,84.36Z"/><path class="cls-3" d="M34.86,76.28a.63.63,0,1,1-.84-.94.63.63,0,0,1,.84.94Z"/><path class="cls-3" d="M30.52,84.2a.36.36,0,0,1-.51,0,.35.35,0,0,1,.53-.47A.36.36,0,0,1,30.52,84.2Z"/><path class="cls-3" d="M34.64,76a.31.31,0,0,1-.43,0,.31.31,0,1,1,.46-.42A.31.31,0,0,1,34.64,76Z"/><path class="cls-3" d="M70,17.83a.6.6,0,0,1-.86,0,.62.62,0,0,1,0-.87A.63.63,0,0,1,70,17,.61.61,0,0,1,70,17.83Z"/><path class="cls-3" d="M51.53,38.93a.36.36,0,0,1-.48-.53.36.36,0,1,1,.48.53Z"/><path class="cls-3" d="M37.85,19.32a.45.45,0,1,1,0-.63A.44.44,0,0,1,37.85,19.32Z"/><path class="cls-3" d="M29.32,44.7a.71.71,0,1,1,.05-1A.71.71,0,0,1,29.32,44.7Z"/><path class="cls-3" d="M44.71,53.64a.38.38,0,0,1-.53,0,.37.37,0,0,1,0-.53.38.38,0,0,1,.5.56Z"/><path class="cls-3" d="M30.57,84.26a.44.44,0,0,1-.58-.65.44.44,0,0,1,.58.65Z"/><path class="cls-3" d="M51.44,38.83a.22.22,0,0,1-.32,0,.22.22,0,0,1,0-.31.22.22,0,1,1,.3.33Z"/></g><polygon class="cls-3" points="120 81.17 107.3 79.56 86.63 61.61 120 79.14 120 79.06 86.38 61.39 86.33 61.45 107.26 79.62 107.27 79.63 120 81.24 120 81.17"/><polygon class="cls-3" points="120 81.24 120 81.17 107.29 79.56 107.25 79.55 107.35 85 107.42 85 107.33 79.64 120 81.24"/><path class="cls-3" d="M107.27,79.63l-13-6.12h0l-7.93-12,0-.05,20.93,18.16Zm-13-6.18,12.74,6L86.54,61.63Z"/><polygon class="cls-3" points="92.36 85 90.88 83.6 107.25 79.64 107.35 85 107.42 85 107.33 79.59 107.32 79.55 90.73 83.56 92.25 85 92.36 85"/><polygon class="cls-3" points="90.46 85 90.82 83.65 92.25 85 92.36 85 90.78 83.51 90.39 85 90.46 85"/><path class="cls-3" d="M90.74,83.63l3.53-10.2h0L107.4,79.6l-.1,0Zm3.57-10.1-3.45,10,16.31-4Z"/><polygon class="cls-3" points="78.95 85 76.31 81.14 90.75 83.61 90.39 85 90.46 85 90.84 83.59 90.85 83.55 76.24 81.05 76.15 81.04 78.86 85 78.95 85"/><polygon class="cls-3" points="74.74 85 76.24 81.17 78.86 85 78.95 85 76.27 81.07 76.22 81.01 74.66 85 74.74 85"/><path class="cls-3" d="M90.83,83.62h0L76.1,81.1l18.25-7.69ZM76.37,81.07l14.41,2.47,3.45-10Z"/><path class="cls-3" d="M76.15,81.16l0-.09L86.35,61.35l0,.06,8,12.09h0ZM86.36,61.5,76.31,81l17.92-7.55Z"/><polygon class="cls-3" points="51.96 85 53.2 71.74 76.14 81.09 68.23 85 68.39 85 76.25 81.12 76.33 81.08 53.19 71.65 53.14 71.63 51.88 85 51.96 85"/><path class="cls-3" d="M76.3,81.16l-.08,0L53.11,71.7l0,0,13.52-16ZM53.23,71.67,76.17,81,66.63,55.81Z"/><polygon class="cls-3" points="68.39 85 76.16 81.17 74.66 85 74.74 85 76.27 81.1 76.31 81.01 68.23 85 68.39 85"/><path class="cls-3" d="M53.13,71.8v-.11l1.24-21.85.05,0L66.7,55.72ZM54.44,50,53.21,71.58,66.58,55.75Z"/><polygon class="cls-3" points="32.71 85 45.95 72.84 48.97 85 49.05 85 45.99 72.7 32.59 85 32.71 85"/><polygon class="cls-3" points="49.05 85 46.01 72.8 53.13 71.73 51.88 85 51.96 85 53.21 71.64 45.96 72.73 45.92 72.74 48.97 85 49.05 85"/><path class="cls-3" d="M45.91,72.82l8.46-22.94.07,0L53.21,71.72h0Zm8.44-22.68L46,72.72l7.11-1.06Z"/><path class="cls-3" d="M19.3,74.05,24.07,61l0,0,22,11.82H46Zm4.81-13L19.41,74l26.42-1.23Z"/><path class="cls-3" d="M46,72.84l-.07,0L24,61l0,0,14-19.49ZM24.15,61,45.91,72.7l-7.86-31Z"/><polygon class="cls-3" points="0.32 85 19.29 74.09 15.51 85 15.59 85 19.43 73.93 0.17 85 0.32 85"/><path class="cls-3" d="M24.08,61.1l0-.07-7.95-23,22,3.5Zm-7.86-23L24.1,60.93,38,41.61Z"/><path class="cls-3" d="M24.06,61,10.92,45.3,16.17,38l0,.07L24.13,61ZM11,45.3,24,60.83,16.15,38.19Z"/><polygon class="cls-3" points="5.43 67.31 5.4 67.29 0 78.86 0 79.04 5.44 67.39 19.28 74.01 0.17 85 0.32 85 19.38 74.04 19.44 74.01 5.43 67.31"/><path class="cls-3" d="M19.38,74.06l0,0-14-6.7L24.15,61l0,.07ZM5.52,67.35,19.34,74,24,61.08Z"/><path class="cls-3" d="M5.36,67.4l0-.07L11,45.22l.05.06L24.15,61l0,0Zm5.62-22L5.47,67.29,24,61Z"/><polygon class="cls-3" points="120 9.13 107.73 17.96 66.6 19.41 120 4.84 120 4.76 66.27 19.42 66.28 19.49 107.74 18.04 107.75 18.04 120 9.22 120 9.13"/><polygon class="cls-3" points="120 30.64 107.8 18.01 120 9.22 120 9.13 107.72 17.97 107.69 18 120 30.75 120 30.64"/><path class="cls-3" d="M87.27,24.6h0l-21-5.11v-.07L107.74,18V18ZM66.55,19.48l20.72,5.05,20.2-6.48Z"/><polygon class="cls-3" points="120 67.38 103.7 57.73 120 45.75 120 45.66 103.61 57.7 103.57 57.73 120 67.47 120 67.38"/><polygon class="cls-3" points="120 39.37 93.82 39.15 107.75 18.06 120 30.75 120 30.64 107.77 17.98 107.74 17.94 93.72 39.17 93.68 39.23 120 39.44 120 39.37"/><polygon class="cls-3" points="120 45.66 103.65 57.67 93.81 39.23 120 39.44 120 39.37 93.75 39.15 93.69 39.15 103.6 57.75 103.62 57.79 120 45.75 120 45.66"/><polygon class="cls-3" points="120 71.64 109.48 85 109.58 85 120 71.76 120 71.64"/><path class="cls-3" d="M93.74,39.27l0-.06L87.21,24.54l20.62-6.61-.06.09ZM87.32,24.59l6.44,14.52,13.89-21Z"/><polygon class="cls-3" points="120 67.47 120 67.38 103.66 57.7 103.58 57.66 109.08 85 109.16 85 103.69 57.81 120 67.47"/><polygon class="cls-3" points="120 71.64 109.48 85 109.58 85 120 71.76 120 71.64"/><polygon class="cls-3" points="107.46 85 86.82 80.51 103.62 57.82 109.08 85 109.16 85 103.67 57.72 103.66 57.64 86.72 80.51 86.69 80.56 107.11 85 107.46 85"/><path class="cls-3" d="M103.71,57.79l-.08,0L75.16,51.34l.07,0L93.76,39.14l0,0ZM75.34,51.31l28.23,6.37L93.74,39.25Z"/><path class="cls-3" d="M86.74,80.61l0-.06L75.19,51.27l.07,0,28.44,6.42,0,0ZM75.31,51.38,86.76,80.46l16.81-22.71Z"/><polygon class="cls-3" points="86.66 85 86.79 80.58 107.11 85 107.46 85 86.76 80.5 86.72 80.48 86.58 85 86.66 85"/><path class="cls-3" d="M75.16,51.43l.06-.12,12-26.84L93.8,39.21h0ZM87.27,24.66,75.34,51.22l18.36-12Z"/><path class="cls-3" d="M75.24,51.44l0-.1-9-31.94,21.09,5.14,0,0ZM66.33,19.51l8.93,31.71L87.21,24.59Z"/><polygon class="cls-3" points="56.17 85 40.45 64.58 75.19 51.39 62.45 85 62.53 85 75.28 51.34 75.31 51.26 40.38 64.53 40.33 64.55 56.08 85 56.17 85"/><path class="cls-3" d="M40.36,64.62v-.05L38.83,33.28l.06,0,36.45,18ZM38.92,33.4l1.51,31.11L75.16,51.32Z"/><polygon class="cls-3" points="62.53 85 75.25 51.43 86.7 80.51 74.87 85 75.08 85 86.77 80.57 86.8 80.55 75.25 51.22 62.45 85 62.53 85"/><polygon class="cls-3" points="75.08 85 86.72 80.59 86.58 85 86.66 85 86.79 80.53 86.79 80.48 74.87 85 75.08 85"/><path class="cls-3" d="M40.44,64.67l-.08-.08L19.44,39.42l.06,0,19.41-6.11v.05ZM19.57,39.46l20.78,25L38.84,33.39Z"/><polygon class="cls-3" points="32.71 85 33.64 73.17 51.82 85 51.95 85 33.63 73.07 33.57 73.03 32.64 85 32.71 85"/><polygon class="cls-3" points="51.95 85 33.66 73.09 40.39 64.63 56.08 85 56.17 85 40.39 64.5 33.58 73.08 33.55 73.11 51.82 85 51.95 85"/><path class="cls-3" d="M33.6,73.17l0-.06L19.47,39.45l.07,0,20.9,25.15,0,0Zm-14-33.52L33.62,73l6.73-8.47Z"/><polygon class="cls-3" points="22.02 85 33.56 73.2 32.64 85 32.71 85 33.64 73.1 33.65 73 21.92 85 22.02 85"/><polygon class="cls-3" points="0 81.89 0 81.97 33.48 73.17 21.92 85 22.02 85 33.63 73.13 33.73 73.03 0 81.89"/><polygon class="cls-3" points="0 51.39 0 51.48 33.51 73.08 0 81.89 0 81.97 33.62 73.14 33.7 73.11 0 51.39"/><path class="cls-3" d="M107.65,79.59a.36.36,0,1,1-.72,0,.36.36,0,1,1,.72,0Z"/><circle class="cls-3" cx="86.36" cy="61.43" r="0.62"/><path class="cls-3" d="M108.07,79.59a.78.78,0,1,1-.78-.78A.78.78,0,0,1,108.07,79.59Z"/><path class="cls-3" d="M108.09,79.59a.81.81,0,1,1-.8-.8A.8.8,0,0,1,108.09,79.59Z"/><path class="cls-3" d="M94.86,73.48a.57.57,0,0,1-.57.56.56.56,0,0,1-.56-.56.57.57,0,0,1,.56-.57A.58.58,0,0,1,94.86,73.48Z"/><path class="cls-3" d="M86.79,61.43a.43.43,0,0,1-.43.43.44.44,0,0,1-.44-.43.44.44,0,0,1,.44-.44A.44.44,0,0,1,86.79,61.43Z"/><path class="cls-3" d="M91.12,83.58a.32.32,0,1,1-.32-.32A.32.32,0,0,1,91.12,83.58Z"/><path class="cls-3" d="M107.87,79.59a.59.59,0,1,1-.58-.58A.58.58,0,0,1,107.87,79.59Z"/><path class="cls-3" d="M91.93,83.58a1.13,1.13,0,0,1-2.26,0,1.13,1.13,0,0,1,2.26,0Z"/><path class="cls-3" d="M108,79.59a.75.75,0,0,1-.75.76.76.76,0,1,1,0-1.51A.75.75,0,0,1,108,79.59Z"/><path class="cls-3" d="M91.43,83.58a.63.63,0,0,1-.63.63.63.63,0,0,1,0-1.26A.63.63,0,0,1,91.43,83.58Z"/><path class="cls-3" d="M95,73.48a.72.72,0,1,1-.72-.72A.71.71,0,0,1,95,73.48Z"/><path class="cls-3" d="M77.37,81.09A1.14,1.14,0,1,1,76.23,80,1.14,1.14,0,0,1,77.37,81.09Z"/><path class="cls-3" d="M91.49,83.58a.69.69,0,1,1-.69-.69A.69.69,0,0,1,91.49,83.58Z"/><path class="cls-3" d="M76.86,81.09a.63.63,0,1,1-.63-.63A.63.63,0,0,1,76.86,81.09Z"/><path class="cls-3" d="M91.66,83.58a.86.86,0,1,1-1.71,0,.85.85,0,0,1,.85-.85A.86.86,0,0,1,91.66,83.58Z"/><path class="cls-3" d="M76.9,81.09a.67.67,0,0,1-1.33,0,.67.67,0,0,1,1.33,0Z"/><path class="cls-3" d="M94.54,73.48a.25.25,0,1,1-.25-.25A.25.25,0,0,1,94.54,73.48Z"/><path class="cls-3" d="M94.61,73.48a.32.32,0,1,1-.32-.32A.32.32,0,0,1,94.61,73.48Z"/><circle class="cls-3" cx="76.23" cy="81.09" r="0.54"/><path class="cls-3" d="M86.81,61.43a.45.45,0,0,1-.45.45.46.46,0,1,1,0-.91A.45.45,0,0,1,86.81,61.43Z"/><path class="cls-3" d="M76.7,81.09a.47.47,0,0,1-.93,0,.47.47,0,0,1,.93,0Z"/><path class="cls-3" d="M53.51,71.69a.34.34,0,0,1-.68,0,.34.34,0,1,1,.68,0Z"/><path class="cls-3" d="M76.62,81.09a.39.39,0,0,1-.77,0,.39.39,0,1,1,.77,0Z"/><circle class="cls-3" cx="53.17" cy="71.69" r="0.46"/><path class="cls-3" d="M67.06,55.73a.42.42,0,0,1-.42.42.42.42,0,1,1,0-.84A.42.42,0,0,1,67.06,55.73Z"/><path class="cls-3" d="M76.58,81.09a.35.35,0,0,1-.35.35.35.35,0,0,1,0-.7A.35.35,0,0,1,76.58,81.09Z"/><path class="cls-3" d="M67.54,55.73a.9.9,0,1,1-1.8,0,.9.9,0,1,1,1.8,0Z"/><path class="cls-3" d="M53.47,71.69a.3.3,0,0,1-.3.29.3.3,0,0,1,0-.59A.3.3,0,0,1,53.47,71.69Z"/><path class="cls-3" d="M54.72,49.9a.32.32,0,1,1-.32-.32A.31.31,0,0,1,54.72,49.9Z"/><path class="cls-3" d="M46.8,72.77a.84.84,0,1,1-.83-.84A.84.84,0,0,1,46.8,72.77Z"/><path class="cls-3" d="M47,72.77a1,1,0,1,1-1-1A1,1,0,0,1,47,72.77Z"/><path class="cls-3" d="M53.79,71.69a.62.62,0,1,1-.62-.62A.62.62,0,0,1,53.79,71.69Z"/><path class="cls-3" d="M53.56,71.69a.39.39,0,0,1-.78,0,.39.39,0,1,1,.78,0Z"/><path class="cls-3" d="M46.65,72.77a.69.69,0,0,1-1.37,0,.69.69,0,1,1,1.37,0Z"/><path class="cls-3" d="M55,49.9a.63.63,0,1,1-.63-.63A.63.63,0,0,1,55,49.9Z"/><path class="cls-3" d="M46.88,72.77a.91.91,0,1,1-.91-.91A.91.91,0,0,1,46.88,72.77Z"/><path class="cls-3" d="M20.12,74a.76.76,0,1,1-.76-.76A.76.76,0,0,1,20.12,74Z"/><path class="cls-3" d="M46.51,72.77a.54.54,0,0,1-.54.54.55.55,0,0,1-.55-.54.55.55,0,0,1,.55-.55A.55.55,0,0,1,46.51,72.77Z"/><path class="cls-3" d="M19.74,74a.38.38,0,1,1-.38-.38A.38.38,0,0,1,19.74,74Z"/><path class="cls-3" d="M24.43,61a.34.34,0,1,1-.34-.34A.34.34,0,0,1,24.43,61Z"/><path class="cls-3" d="M47,72.77a1,1,0,1,1-1-1A1,1,0,0,1,47,72.77Z"/><path class="cls-3" d="M24.3,61a.21.21,0,1,1-.21-.21A.21.21,0,0,1,24.3,61Z"/><path class="cls-3" d="M38.51,41.58a.45.45,0,1,1-.45-.44A.45.45,0,0,1,38.51,41.58Z"/><path class="cls-3" d="M20,74a.64.64,0,0,1-.64.64.64.64,0,0,1,0-1.28A.64.64,0,0,1,20,74Z"/><path class="cls-3" d="M19.65,74a.29.29,0,0,1-.29.29.3.3,0,0,1-.3-.29.31.31,0,0,1,.3-.3A.3.3,0,0,1,19.65,74Z"/><path class="cls-3" d="M38.67,41.58a.61.61,0,1,1-.61-.6A.61.61,0,0,1,38.67,41.58Z"/><path class="cls-3" d="M24.6,61a.51.51,0,0,1-1,0,.51.51,0,1,1,1,0Z"/><path class="cls-3" d="M16.57,38.1a.41.41,0,1,1-.41-.41A.41.41,0,0,1,16.57,38.1Z"/><path class="cls-3" d="M24.43,61a.34.34,0,1,1-.34-.34A.34.34,0,0,1,24.43,61Z"/><path class="cls-3" d="M11.6,45.3a.64.64,0,0,1-.63.64.64.64,0,0,1-.64-.64.64.64,0,0,1,.64-.63A.63.63,0,0,1,11.6,45.3Z"/><path class="cls-3" d="M16.62,38.1a.46.46,0,1,1-.46-.45A.46.46,0,0,1,16.62,38.1Z"/><path class="cls-3" d="M19.77,74a.41.41,0,0,1-.41.42.42.42,0,0,1,0-.84A.41.41,0,0,1,19.77,74Z"/><path class="cls-3" d="M6.22,67.34a.8.8,0,1,1-.8-.8A.8.8,0,0,1,6.22,67.34Z"/><path class="cls-3" d="M20.08,74a.72.72,0,1,1-.72-.72A.72.72,0,0,1,20.08,74Z"/><path class="cls-3" d="M6,67.34a.54.54,0,1,1-.53-.53A.54.54,0,0,1,6,67.34Z"/><path class="cls-3" d="M24.5,61a.41.41,0,0,1-.41.41.41.41,0,0,1-.42-.41.42.42,0,0,1,.42-.42A.41.41,0,0,1,24.5,61Z"/><circle class="cls-3" cx="24.09" cy="61.02" r="0.58"/><path class="cls-3" d="M6.34,67.34a.92.92,0,1,1-.92-.92A.93.93,0,0,1,6.34,67.34Z"/><path class="cls-3" d="M11.38,45.3a.42.42,0,0,1-.83,0,.42.42,0,0,1,.83,0Z"/><path class="cls-3" d="M108.32,18a.58.58,0,1,1-.58-.58A.58.58,0,0,1,108.32,18Z"/><circle class="cls-3" cx="66.28" cy="19.46" r="0.58"/><path class="cls-3" d="M108.38,18a.64.64,0,0,1-.64.64.64.64,0,0,1,0-1.28A.64.64,0,0,1,108.38,18Z"/><path class="cls-3" d="M108.23,18a.49.49,0,0,1-.49.49.49.49,0,0,1,0-1A.49.49,0,0,1,108.23,18Z"/><path class="cls-3" d="M87.92,24.56a.65.65,0,1,1-1.3,0,.65.65,0,1,1,1.3,0Z"/><path class="cls-3" d="M66.92,19.46a.64.64,0,1,1-.64-.64A.64.64,0,0,1,66.92,19.46Z"/><path class="cls-3" d="M104.21,57.73a.58.58,0,0,1-.57.57.57.57,0,0,1,0-1.14A.58.58,0,0,1,104.21,57.73Z"/><path class="cls-3" d="M94,39.19a.26.26,0,1,1-.26-.26A.26.26,0,0,1,94,39.19Z"/><circle class="cls-3" cx="107.74" cy="18" r="0.64"/><path class="cls-3" d="M104.24,57.73a.6.6,0,0,1-.6.6.6.6,0,1,1,0-1.2A.6.6,0,0,1,104.24,57.73Z"/><path class="cls-3" d="M94.09,39.19a.34.34,0,1,1-.34-.34A.34.34,0,0,1,94.09,39.19Z"/><path class="cls-3" d="M109.39,85a.41.41,0,0,0-.19,0,.39.39,0,0,0-.18,0Z"/><path class="cls-3" d="M108.5,18a.76.76,0,1,1-.76-.76A.76.76,0,0,1,108.5,18Z"/><path class="cls-3" d="M94.71,39.19a1,1,0,1,1-1-1A1,1,0,0,1,94.71,39.19Z"/><path class="cls-3" d="M87.51,24.56a.25.25,0,0,1-.24.25.24.24,0,0,1-.24-.25.24.24,0,0,1,.24-.24A.24.24,0,0,1,87.51,24.56Z"/><path class="cls-3" d="M104.24,57.73a.6.6,0,0,1-.6.6.6.6,0,1,1,0-1.2A.6.6,0,0,1,104.24,57.73Z"/><circle class="cls-3" cx="103.64" cy="57.73" r="0.71"/><path class="cls-3" d="M109.66,85a.65.65,0,0,0-.46-.2.61.61,0,0,0-.45.2Z"/><path class="cls-3" d="M87,80.53a.28.28,0,0,1-.28.27.27.27,0,0,1,0-.54A.28.28,0,0,1,87,80.53Z"/><path class="cls-3" d="M104.59,57.73a1,1,0,1,1-1-.95A.95.95,0,0,1,104.59,57.73Z"/><path class="cls-3" d="M76.21,51.33a1,1,0,1,1-1-1A1,1,0,0,1,76.21,51.33Z"/><path class="cls-3" d="M94.39,39.19a.64.64,0,0,1-.64.64.64.64,0,0,1-.63-.64.63.63,0,0,1,.63-.63A.64.64,0,0,1,94.39,39.19Z"/><path class="cls-3" d="M104.24,57.73a.6.6,0,1,1-.6-.6A.6.6,0,0,1,104.24,57.73Z"/><path class="cls-3" d="M87.56,80.53a.81.81,0,1,1-.81-.8A.81.81,0,0,1,87.56,80.53Z"/><path class="cls-3" d="M75.61,51.33a.36.36,0,1,1-.36-.36A.36.36,0,0,1,75.61,51.33Z"/><path class="cls-3" d="M87.47,80.53a.72.72,0,1,1-.72-.72A.72.72,0,0,1,87.47,80.53Z"/><path class="cls-3" d="M94.38,39.19a.63.63,0,1,1-.63-.63A.63.63,0,0,1,94.38,39.19Z"/><circle class="cls-3" cx="75.25" cy="51.33" r="0.5"/><path class="cls-3" d="M87.66,24.56a.4.4,0,0,1-.39.4.4.4,0,0,1,0-.79A.4.4,0,0,1,87.66,24.56Z"/><path class="cls-3" d="M87.45,24.56a.18.18,0,0,1-.18.19.18.18,0,0,1-.19-.19.18.18,0,0,1,.19-.18A.18.18,0,0,1,87.45,24.56Z"/><path class="cls-3" d="M76.08,51.33a.83.83,0,1,1-.83-.83A.83.83,0,0,1,76.08,51.33Z"/><path class="cls-3" d="M67.11,19.46a.83.83,0,1,1-1.66,0,.83.83,0,1,1,1.66,0Z"/><path class="cls-3" d="M75.62,51.33a.37.37,0,1,1-.37-.37A.37.37,0,0,1,75.62,51.33Z"/><path class="cls-3" d="M40.93,64.56a.54.54,0,1,1-.54-.53A.54.54,0,0,1,40.93,64.56Z"/><path class="cls-3" d="M76.1,51.33a.85.85,0,1,1-.85-.85A.85.85,0,0,1,76.1,51.33Z"/><path class="cls-3" d="M40.66,64.56a.27.27,0,1,1-.53,0,.27.27,0,0,1,.53,0Z"/><path class="cls-3" d="M39.54,33.34a.67.67,0,1,1-.66-.67A.67.67,0,0,1,39.54,33.34Z"/><path class="cls-3" d="M87.92,80.53a1.17,1.17,0,1,1-1.17-1.17A1.17,1.17,0,0,1,87.92,80.53Z"/><path class="cls-3" d="M75.87,51.33a.62.62,0,0,1-1.24,0,.62.62,0,1,1,1.24,0Z"/><path class="cls-3" d="M87.22,80.53a.47.47,0,1,1-.93,0,.47.47,0,0,1,.93,0Z"/><path class="cls-3" d="M39.48,33.34a.61.61,0,1,1-.6-.61A.6.6,0,0,1,39.48,33.34Z"/><path class="cls-3" d="M40.63,64.56a.24.24,0,0,1-.24.24.23.23,0,0,1-.23-.24.23.23,0,0,1,.23-.23A.23.23,0,0,1,40.63,64.56Z"/><circle class="cls-3" cx="19.51" cy="39.44" r="0.38"/><path class="cls-3" d="M34.16,73.1a.56.56,0,1,1-.55-.55A.55.55,0,0,1,34.16,73.1Z"/><path class="cls-3" d="M34.06,73.1a.46.46,0,1,1-.45-.45A.45.45,0,0,1,34.06,73.1Z"/><path class="cls-3" d="M41.37,64.56a1,1,0,1,1-1-1A1,1,0,0,1,41.37,64.56Z"/><path class="cls-3" d="M41.27,64.56a.88.88,0,1,1-.88-.88A.88.88,0,0,1,41.27,64.56Z"/><path class="cls-3" d="M33.91,73.1a.31.31,0,1,1-.3-.3A.3.3,0,0,1,33.91,73.1Z"/><path class="cls-3" d="M20.16,39.44a.65.65,0,0,1-.65.65.66.66,0,0,1-.66-.65.67.67,0,0,1,.66-.66A.66.66,0,0,1,20.16,39.44Z"/><path class="cls-3" d="M34,73.1a.39.39,0,1,1-.38-.39A.39.39,0,0,1,34,73.1Z"/><path class="cls-3" d="M34,73.1a.39.39,0,1,1-.38-.38A.38.38,0,0,1,34,73.1Z"/><path class="cls-3" d="M34.19,73.1a.59.59,0,1,1-.58-.59A.59.59,0,0,1,34.19,73.1Z"/><g class="cls-2"><polygon class="cls-3" points="110.28 85 110.17 90.62 111.61 85 111.67 85 110.16 90.89 110.1 90.88 110.22 85 110.28 85"/><polygon class="cls-3" points="108.64 85 110.11 90.66 110.22 85 110.28 85 110.16 90.88 110.1 90.89 108.58 85 108.64 85"/><polygon class="cls-3" points="89.66 85 93.35 86.39 93.02 85 93.08 85 93.42 86.43 93.44 86.49 89.49 85 89.66 85"/><polygon class="cls-3" points="94.34 85 93.47 86.37 96.4 85 96.54 85 93.31 86.51 94.27 85 94.34 85"/><polygon class="cls-3" points="48.66 85 48.99 85.64 48.93 85 48.99 85 49.07 85.78 49.01 85.8 48.6 85 48.66 85"/><path class="cls-3" d="M86.78,104.79l0,0L73,94.55l0,0,20.49-8.13Zm0-.06,6.61-18.24-20.27,8Z"/><path class="cls-3" d="M103.12,105.31l0,0-16.39-.54h0l6.68-18.43Zm-.08,0L93.4,86.51l-6.61,18.24Z"/><polygon class="cls-3" points="76.49 85 73.06 94.47 93.31 86.44 89.49 85 89.66 85 93.48 86.44 73.02 94.55 72.96 94.58 76.42 85 76.49 85"/><polygon class="cls-3" points="64.74 85 66.63 98.3 72.97 94.52 66.62 85 66.69 85 73.05 94.53 66.58 98.4 64.68 85 64.74 85"/><path class="cls-3" d="M103.09,105.29h0l-3,10.22v0L86.66,104.74Zm0,.06-16.21-.54L100,115.45Z"/><polygon class="cls-3" points="28.9 85 31.68 98.62 39.7 85 39.77 85 31.65 98.78 28.84 85 28.9 85"/><path class="cls-3" d="M57.89,100.18v0l-7,5.16,0,0L49,85.79l.05,0Zm-.06,0L49.08,85.91l1.84,19.38Z"/><path class="cls-3" d="M50.92,105.35v0L31.6,98.71,49,85.76l0,0Zm-.06,0L49,85.84,31.73,98.69Z"/><path class="cls-3" d="M67.62,109.78h-.06l-1-11.43v0l6.49-3.87Zm0-.15,5.34-15-6.32,3.77Z"/><path class="cls-3" d="M51,105.36l-15,2.8-4.35-9.51Zm-.23,0L31.72,98.75,36,108.1Z"/><path class="cls-3" d="M77.71,127.28v0l-10.1-4.1L82.39,108.3Zm0,0,4.62-18.75L67.7,123.2Z"/><path class="cls-3" d="M96.33,129.34l0,0L77.65,127.3l4.66-18.91,0-.07Zm-.08,0-13.9-20.85-4.63,18.78Z"/><path class="cls-3" d="M31.69,98.68l0,0L15.25,108.84l6-20.69Zm-.07,0L21.31,88.27l-6,20.44Z"/><path class="cls-3" d="M52.56,116.79v0l-5.81-2.11,4.15-9.49Zm-.06,0-1.62-11.29-4,9.24Z"/><path class="cls-3" d="M23.18,125l-.05,0-9.61-8.6h0l1.79-7.77Zm-.12-.1-7.75-16.06-1.74,7.57Z"/><path class="cls-3" d="M96.36,129.33l-9.5,14.6,0,0-9.2-16.73Zm-.1,0-18.52-2.07,9.09,16.55Z"/><path class="cls-3" d="M23.15,125.1l-7.88-16.31,0,0L36,108.1H36Zm0-.11,12.75-16.83-20.57.65Z"/><path class="cls-3" d="M80,143.15v.06l-15.77-8.38,0,0,13.57-7.58Zm-.06-.05-2.23-15.78-13.39,7.49Z"/><polygon class="cls-3" points="120 85.23 110.23 102.59 120 100.03 120 100.1 110.11 102.68 120 85.11 120 85.23"/><polygon class="cls-3" points="120 105.84 110.24 102.69 120 118.2 120 118.31 110.14 102.65 110.1 102.58 120 105.78 120 105.84"/><path class="cls-3" d="M110.24,102.63,84.16,116l-4.6-25.29v0Zm-.14,0L79.63,90.73,84.2,115.9Z"/><path class="cls-3" d="M101.55,133.22v.05L84.16,116l0,0,26-13.32.06,0Zm0-.06,8.61-30.47L84.23,116Z"/><polygon class="cls-3" points="90.75 85 79.66 90.68 110.11 102.58 101.38 85 101.45 85 110.19 102.62 110.23 102.69 79.58 90.72 79.52 90.69 90.62 85 90.75 85"/><polygon class="cls-3" points="71.03 85 68.72 88.32 79.56 90.65 80.48 85 80.55 85 79.62 90.69 79.61 90.72 68.66 88.37 68.62 88.36 70.96 85 71.03 85"/><path class="cls-3" d="M84.21,115.93v0l-8.6-.54,3.94-24.75h.06Zm-.07,0-4.55-25-3.9,24.52Z"/><path class="cls-3" d="M75.74,115.43l-31.28,1.24h-.07l13.68-14.83,0,0Zm-.16-.05L58.1,101.9,44.53,116.61Z"/><path class="cls-3" d="M51.31,131.36l0,0-6.85-14.73,0,0,31.35-1.24Zm0-.07,24.25-15.85-31,1.23Z"/><path class="cls-3" d="M69.59,152.69,51.27,131.36l0,0,24.39-16,.06,0Zm0-.13,6.07-37.1L51.34,131.34Z"/><path class="cls-3" d="M58.1,101.83l0,0-13.7,14.84-10-22.49,0-.06Zm-.06,0L34.49,94.24l10,22.35Z"/><path class="cls-3" d="M44.48,116.63l0,.07L15.87,103.36l0,0,18.63-9.19Zm-.08,0-10-22.35L16,103.34Z"/><path class="cls-3" d="M51.32,131.34l-7,27.56V159L37.53,151h0l13.76-19.7Zm-7,27.49,6.89-27.34L37.59,151Z"/><path class="cls-3" d="M51.34,131.32,37.57,151l0,.05-8.72-25.24,0,0Zm-.1,0-22.35-5.49L37.56,151Z"/><path class="cls-3" d="M110.46,90.52a.49.49,0,1,0-.65.72.49.49,0,0,0,.65-.72Z"/><path class="cls-3" d="M110.36,90.63a.34.34,0,1,0-.45.5.32.32,0,0,0,.47,0A.34.34,0,0,0,110.36,90.63Z"/><path class="cls-3" d="M94,85.78a.88.88,0,0,0-1.25.06.9.9,0,0,0,.06,1.26A.89.89,0,0,0,94,85.78Z"/><path class="cls-3" d="M93.74,86.05a.52.52,0,0,0-.73,0,.52.52,0,0,0,.77.7A.53.53,0,0,0,93.74,86.05Z"/><path class="cls-3" d="M93.68,86.12a.44.44,0,0,0-.6,0,.43.43,0,0,0,0,.6.42.42,0,0,0,.6,0A.43.43,0,0,0,93.68,86.12Z"/><path class="cls-3" d="M93.64,86.17a.36.36,0,0,0-.51,0,.35.35,0,0,0,0,.51.36.36,0,0,0,.49-.54Z"/><path class="cls-3" d="M73.28,94.22a.41.41,0,1,0,0,.58A.41.41,0,0,0,73.28,94.22Z"/><path class="cls-3" d="M93.6,86.21a.3.3,0,0,0-.43,0,.3.3,0,0,0,0,.42.29.29,0,0,0,.43,0A.31.31,0,0,0,93.6,86.21Z"/><path class="cls-3" d="M87,104.51a.36.36,0,0,0-.51,0,.35.35,0,0,0,0,.5.36.36,0,0,0,.5,0A.35.35,0,0,0,87,104.51Z"/><path class="cls-3" d="M93.58,86.24a.26.26,0,0,0-.39,0,.27.27,0,0,0,0,.38.28.28,0,0,0,.39,0A.27.27,0,0,0,93.58,86.24Z"/><path class="cls-3" d="M58.06,100a.29.29,0,0,0-.41,0,.3.3,0,0,0,0,.42.29.29,0,0,0,.41,0A.3.3,0,0,0,58.06,100Z"/><path class="cls-3" d="M66.74,98.19a.21.21,0,0,0-.28.31.21.21,0,0,0,.3,0A.22.22,0,0,0,66.74,98.19Z"/><path class="cls-3" d="M86.9,104.6a.23.23,0,0,0-.31.35.24.24,0,0,0,.33,0A.23.23,0,0,0,86.9,104.6Z"/><path class="cls-3" d="M21.68,87.78a.58.58,0,1,0-.77.86.58.58,0,0,0,.77-.86Z"/><path class="cls-3" d="M67.71,109.64a.18.18,0,0,0-.25,0,.17.17,0,0,0,0,.24.18.18,0,0,0,.25,0A.18.18,0,0,0,67.71,109.64Z"/><path class="cls-3" d="M87.07,104.42a.48.48,0,0,0-.68,0,.49.49,0,1,0,.72.65A.48.48,0,0,0,87.07,104.42Z"/><path class="cls-3" d="M51.55,104.62a1,1,0,1,0,.07,1.39A1,1,0,0,0,51.55,104.62Z"/><path class="cls-3" d="M58.09,100a.32.32,0,0,0-.47,0,.34.34,0,0,0,0,.48.34.34,0,1,0,.45-.5Z"/><path class="cls-3" d="M32,98.3a.54.54,0,1,0,0,.76A.54.54,0,0,0,32,98.3Z"/><path class="cls-3" d="M32.26,98a.89.89,0,0,0-1.25.07.88.88,0,0,0,1.31,1.18A.89.89,0,0,0,32.26,98Z"/><path class="cls-3" d="M67,97.92a.58.58,0,1,0,0,.82A.57.57,0,0,0,67,97.92Z"/><path class="cls-3" d="M36.21,107.87a.34.34,0,0,0-.49,0,.35.35,0,0,0,0,.49.35.35,0,1,0,.47-.52Z"/><path class="cls-3" d="M51.27,104.93a.56.56,0,1,0-.75.84.56.56,0,0,0,.79,0A.57.57,0,0,0,51.27,104.93Z"/><path class="cls-3" d="M14,87.8a.24.24,0,1,0,0,.34A.24.24,0,0,0,14,87.8Z"/><path class="cls-3" d="M67.75,109.6a.23.23,0,0,0-.33,0,.24.24,0,0,0,0,.33.25.25,0,0,0,.33,0A.24.24,0,0,0,67.75,109.6Z"/><path class="cls-3" d="M82.62,108.08a.42.42,0,0,0-.6,0,.44.44,0,0,0,0,.6.42.42,0,1,0,.57-.63Z"/><path class="cls-3" d="M51.08,105.14a.28.28,0,0,0-.4,0,.28.28,0,0,0,.42.38A.27.27,0,0,0,51.08,105.14Z"/><path class="cls-3" d="M67.94,109.39a.52.52,0,0,0-.74,0,.53.53,0,0,0,0,.74.52.52,0,1,0,.7-.77Z"/><path class="cls-3" d="M21.64,87.82a.52.52,0,0,0-.7.78.53.53,0,0,0,.74,0A.52.52,0,0,0,21.64,87.82Z"/><path class="cls-3" d="M15.76,108.26a.7.7,0,0,0-1,0,.7.7,0,1,0,1,0Z"/><path class="cls-3" d="M14.21,87.57a.55.55,0,1,0-.74.82.55.55,0,1,0,.74-.82Z"/><path class="cls-3" d="M36.2,107.88a.33.33,0,0,0-.47,0,.32.32,0,0,0,0,.47.33.33,0,0,0,.47,0A.32.32,0,0,0,36.2,107.88Z"/><path class="cls-3" d="M15.58,108.46a.42.42,0,0,0-.6,0,.43.43,0,0,0,.64.58A.44.44,0,0,0,15.58,108.46Z"/><path class="cls-3" d="M36.5,107.55a.78.78,0,1,0-1,1.16.78.78,0,1,0,1-1.16Z"/><path class="cls-3" d="M67.93,109.4a.51.51,0,1,0,0,.71A.5.5,0,0,0,67.93,109.4Z"/><path class="cls-3" d="M51.18,105a.43.43,0,0,0-.6,0,.42.42,0,1,0,.63.57A.43.43,0,0,0,51.18,105Z"/><path class="cls-3" d="M52.83,116.47a.44.44,0,1,0,0,.62A.44.44,0,0,0,52.83,116.47Z"/><path class="cls-3" d="M23.48,124.69a.48.48,0,0,0-.69,0,.49.49,0,1,0,.72.65A.48.48,0,0,0,23.48,124.69Z"/><path class="cls-3" d="M96.63,129a.47.47,0,1,0,0,.66A.47.47,0,0,0,96.63,129Z"/><path class="cls-3" d="M78,127a.41.41,0,0,0-.56,0,.4.4,0,0,0,.59.53A.41.41,0,0,0,78,127Z"/><path class="cls-3" d="M23.42,124.75a.4.4,0,1,0,0,.56A.41.41,0,0,0,23.42,124.75Z"/><path class="cls-3" d="M80.25,142.78a.5.5,0,1,0,0,.7A.49.49,0,0,0,80.25,142.78Z"/><path class="cls-3" d="M87.07,143.65a.36.36,0,0,0-.48.53.36.36,0,0,0,.51,0A.35.35,0,0,0,87.07,143.65Z"/><path class="cls-3" d="M47.77,129.56a.21.21,0,1,0-.28.31.22.22,0,0,0,.3,0A.21.21,0,0,0,47.77,129.56Z"/><path class="cls-3" d="M68,122.79a.57.57,0,0,0-.8,0,.56.56,0,0,0,0,.79.57.57,0,0,0,.8,0A.56.56,0,0,0,68,122.79Z"/><path class="cls-3" d="M52.76,116.54a.34.34,0,1,0,0,.48A.35.35,0,0,0,52.76,116.54Z"/><path class="cls-3" d="M15.64,108.39a.52.52,0,0,0-.69.77.51.51,0,0,0,.73,0A.52.52,0,0,0,15.64,108.39Z"/><path class="cls-3" d="M4.79,106.34a.45.45,0,0,0-.64,0,.46.46,0,0,0,0,.64.47.47,0,0,0,.64,0A.46.46,0,0,0,4.79,106.34Z"/><path class="cls-3" d="M13.86,116.1a.47.47,0,1,0-.64.7.47.47,0,0,0,.67,0A.47.47,0,0,0,13.86,116.1Z"/><path class="cls-3" d="M64.69,134.27a.73.73,0,0,0-1,0,.72.72,0,1,0,1.07,1A.73.73,0,0,0,64.69,134.27Z"/><path class="cls-3" d="M110.67,102.08a.75.75,0,1,0-1,1.11.75.75,0,0,0,1-1.11Z"/><path class="cls-3" d="M110.43,102.34a.39.39,0,0,0-.55,0,.39.39,0,0,0,.58.53A.41.41,0,0,0,110.43,102.34Z"/><path class="cls-3" d="M110.6,102.15a.64.64,0,0,0-.91,0,.66.66,0,0,0,0,.92.65.65,0,1,0,.87-1Z"/><path class="cls-3" d="M79.93,90.31a.52.52,0,0,0-.72,0A.51.51,0,0,0,80,91,.52.52,0,0,0,79.93,90.31Z"/><path class="cls-3" d="M110.62,102.14a.67.67,0,1,0,0,.94A.67.67,0,0,0,110.62,102.14Z"/><path class="cls-3" d="M84.32,115.79a.21.21,0,0,0-.3,0,.21.21,0,0,0,.32.28A.21.21,0,0,0,84.32,115.79Z"/><path class="cls-3" d="M80,90.2a.66.66,0,1,0-.88,1,.66.66,0,1,0,.88-1Z"/><path class="cls-3" d="M68.84,88.15a.25.25,0,1,0,0,.36A.26.26,0,0,0,68.84,88.15Z"/><path class="cls-3" d="M68.94,88a.39.39,0,0,0-.57,0,.4.4,0,0,0,0,.57.41.41,0,0,0,.58,0A.4.4,0,0,0,68.94,88Z"/><path class="cls-3" d="M79.8,90.46a.31.31,0,0,0-.42.46.31.31,0,1,0,.42-.46Z"/><path class="cls-3" d="M84.3,115.8a.18.18,0,1,0,0,.26A.19.19,0,0,0,84.3,115.8Z"/><path class="cls-3" d="M88,141a.3.3,0,0,0-.43,0,.3.3,0,0,0,0,.42A.3.3,0,1,0,88,141Z"/><path class="cls-3" d="M80,90.25a.59.59,0,1,0-.79.87.59.59,0,0,0,.79-.87Z"/><path class="cls-3" d="M84.69,115.37a.76.76,0,1,0,.06,1.08A.77.77,0,0,0,84.69,115.37Z"/><path class="cls-3" d="M80.05,90.18a.68.68,0,0,0-1,0,.69.69,0,0,0,0,1,.7.7,0,0,0,1,0A.69.69,0,0,0,80.05,90.18Z"/><path class="cls-3" d="M68.82,88.18a.22.22,0,1,0-.3.32.22.22,0,1,0,.3-.32Z"/><path class="cls-3" d="M88.16,140.89a.52.52,0,0,0-.73,0,.53.53,0,0,0,0,.73.52.52,0,0,0,.73,0A.51.51,0,0,0,88.16,140.89Z"/><path class="cls-3" d="M68.91,88.07a.35.35,0,0,0-.51,0,.36.36,0,0,0,0,.51.36.36,0,1,0,.49-.54Z"/><path class="cls-3" d="M75.86,115.18a.3.3,0,1,0,0,.43A.31.31,0,0,0,75.86,115.18Z"/><path class="cls-3" d="M58.29,101.65a.29.29,0,0,0-.39.43.31.31,0,0,0,.41,0A.29.29,0,0,0,58.29,101.65Z"/><path class="cls-3" d="M44.78,116.28a.49.49,0,1,0,0,.68A.48.48,0,0,0,44.78,116.28Z"/><path class="cls-3" d="M75.86,115.18a.31.31,0,0,0-.43,0,.3.3,0,0,0,0,.43.3.3,0,0,0,.42,0A.31.31,0,0,0,75.86,115.18Z"/><path class="cls-3" d="M51.55,131.06a.38.38,0,1,0-.51.56.38.38,0,0,0,.51-.56Z"/><path class="cls-3" d="M51.52,131.09a.35.35,0,0,0-.48,0,.35.35,0,0,0,0,.48.33.33,0,0,0,.47,0A.34.34,0,0,0,51.52,131.09Z"/><path class="cls-3" d="M69.82,152.35a.37.37,0,1,0-.49.55.37.37,0,0,0,.49-.55Z"/><path class="cls-3" d="M34.59,94a.22.22,0,0,0-.32,0,.23.23,0,0,0,.34.32A.23.23,0,0,0,34.59,94Z"/><path class="cls-3" d="M30.66,85.64a.57.57,0,0,0-.76.84.56.56,0,0,0,.8,0A.57.57,0,0,0,30.66,85.64Z"/><path class="cls-3" d="M34.86,93.72a.63.63,0,1,0-.84.94.63.63,0,0,0,.84-.94Z"/><path class="cls-3" d="M30.52,85.8a.36.36,0,0,0-.51,0,.35.35,0,0,0,.53.47A.36.36,0,0,0,30.52,85.8Z"/><path class="cls-3" d="M34.64,94a.31.31,0,0,0-.43,0,.31.31,0,1,0,.46.42A.31.31,0,0,0,34.64,94Z"/><path class="cls-3" d="M70,152.17a.6.6,0,0,0-.86,0,.62.62,0,0,0,0,.87A.63.63,0,0,0,70,153,.61.61,0,0,0,70,152.17Z"/><path class="cls-3" d="M51.53,131.07a.36.36,0,0,0-.48.53.36.36,0,1,0,.48-.53Z"/><path class="cls-3" d="M37.85,150.68a.45.45,0,1,0,0,.63A.44.44,0,0,0,37.85,150.68Z"/><path class="cls-3" d="M29.32,125.3a.71.71,0,1,0,.05,1A.71.71,0,0,0,29.32,125.3Z"/><path class="cls-3" d="M44.71,116.36a.38.38,0,0,0-.53,0,.37.37,0,0,0,0,.53.38.38,0,0,0,.5-.56Z"/><path class="cls-3" d="M30.57,85.74a.44.44,0,0,0-.58.65.44.44,0,0,0,.58-.65Z"/><path class="cls-3" d="M51.44,131.17a.22.22,0,0,0-.32,0,.22.22,0,0,0,0,.31.22.22,0,1,0,.3-.33Z"/></g><polygon class="cls-3" points="120 88.83 107.3 90.44 86.63 108.39 120 90.86 120 90.94 86.38 108.61 86.33 108.55 107.26 90.38 107.27 90.37 120 88.76 120 88.83"/><polygon class="cls-3" points="120 88.76 120 88.83 107.29 90.44 107.25 90.45 107.35 85 107.42 85 107.33 90.36 120 88.76"/><path class="cls-3" d="M107.31,90.44,86.38,108.6l0,0,7.93-12h0l13-6.12ZM86.54,108.37l20.52-17.81-12.74,6Z"/><polygon class="cls-3" points="92.36 85 90.88 86.4 107.25 90.36 107.35 85 107.42 85 107.33 90.41 107.32 90.45 90.73 86.44 92.25 85 92.36 85"/><polygon class="cls-3" points="90.46 85 90.82 86.35 92.25 85 92.36 85 90.78 86.49 90.39 85 90.46 85"/><path class="cls-3" d="M107.3,90.37l.1,0L94.31,96.56h0l-3.53-10.2Zm-.13,0-16.31-4,3.45,10Z"/><polygon class="cls-3" points="78.95 85 76.31 88.86 90.75 86.39 90.39 85 90.46 85 90.84 86.41 90.85 86.45 76.24 88.95 76.15 88.96 78.86 85 78.95 85"/><polygon class="cls-3" points="74.74 85 76.24 88.83 78.86 85 78.95 85 76.27 88.93 76.22 88.99 74.66 85 74.74 85"/><path class="cls-3" d="M94.35,96.59,76.1,88.9l14.69-2.52h0Zm-.12-.14-3.45-10L76.37,88.93Z"/><path class="cls-3" d="M94.31,96.49h0l-8,12.09,0,.06L76.2,88.93l0-.09Zm-.08.05L76.31,89l10,19.51Z"/><polygon class="cls-3" points="51.96 85 53.2 98.26 76.14 88.91 68.23 85 68.39 85 76.25 88.88 76.33 88.92 53.19 98.35 53.14 98.37 51.88 85 51.96 85"/><path class="cls-3" d="M66.66,114.34l-13.52-16,0,0,23.11-9.42.08,0Zm0-.15L76.17,89,53.23,98.33Z"/><polygon class="cls-3" points="68.39 85 76.16 88.83 74.66 85 74.74 85 76.27 88.9 76.31 88.99 68.23 85 68.39 85"/><path class="cls-3" d="M66.7,114.28l-12.28,5.86-.05,0L53.13,98.31V98.2Zm-.12,0L53.21,98.42l1.23,21.63Z"/><polygon class="cls-3" points="32.71 85 45.95 97.16 48.97 85 49.05 85 45.99 97.3 32.59 85 32.71 85"/><polygon class="cls-3" points="49.05 85 46.01 97.2 53.13 98.27 51.88 85 51.96 85 53.21 98.36 45.96 97.27 45.92 97.26 48.97 85 49.05 85"/><path class="cls-3" d="M53.18,98.28h0l1.23,21.82-.07,0L45.91,97.18Zm0,.06L46,97.28l8.33,22.58Z"/><polygon class="cls-3" points="31.47 85 19.45 95.96 45.87 97.19 32.59 85 32.71 85 45.99 97.2 46.07 97.27 19.36 96.03 19.27 96.02 31.36 85 31.47 85"/><path class="cls-3" d="M46,97.19h.13L24.11,109l0,0L19.3,96Zm-.14.07L19.41,96l4.7,12.9Z"/><path class="cls-3" d="M38.08,128.5,24.06,109l0,0L46,97.2l.07,0Zm0-.17,7.86-31L24.15,109Z"/><polygon class="cls-3" points="15.59 85 19.38 95.92 31.36 85 31.47 85 19.38 96.02 19.34 96.06 15.51 85 15.59 85"/><polygon class="cls-3" points="0.32 85 19.29 95.91 15.51 85 15.59 85 19.43 96.07 0.17 85 0.32 85"/><path class="cls-3" d="M38.13,128.44l-22,3.5,8-23,0-.07Zm-.13-.05L24.1,109.07l-7.88,22.78Z"/><path class="cls-3" d="M24.13,109l-7.94,22.91,0,.07-5.25-7.28L24.06,109Zm-8,22.81L24,109.17,11,124.7Z"/><polygon class="cls-3" points="5.43 102.69 5.4 102.71 0 91.14 0 90.96 5.44 102.61 19.28 95.99 0.17 85 0.32 85 19.38 95.96 19.44 95.99 5.43 102.69"/><path class="cls-3" d="M24.13,109l0,.07L5.32,102.66l14-6.7,0,0Zm-.1,0L19.34,96,5.52,102.65Z"/><path class="cls-3" d="M24.1,109l0,0L11,124.72l-.05.06L5.38,102.67l0-.07ZM24,109,5.47,102.71,11,124.62Z"/><polygon class="cls-3" points="120 160.87 107.73 152.04 66.6 150.59 120 165.16 120 165.24 66.27 150.58 66.28 150.51 107.74 151.96 107.75 151.96 120 160.78 120 160.87"/><polygon class="cls-3" points="120 139.36 107.8 151.99 120 160.78 120 160.87 107.72 152.03 107.69 152 120 139.25 120 139.36"/><path class="cls-3" d="M107.75,152V152l-41.46-1.46v-.07l21-5.11h0Zm-.28,0-20.2-6.48-20.72,5.05Z"/><polygon class="cls-3" points="120 102.62 103.7 112.27 120 124.25 120 124.34 103.61 112.3 103.57 112.27 120 102.53 120 102.62"/><polygon class="cls-3" points="120 130.63 93.82 130.85 107.75 151.94 120 139.25 120 139.36 107.77 152.03 107.74 152.06 93.72 130.83 93.68 130.77 120 130.56 120 130.63"/><polygon class="cls-3" points="120 124.34 103.65 112.33 93.81 130.77 120 130.56 120 130.63 93.75 130.85 93.69 130.85 103.6 112.25 103.62 112.21 120 124.25 120 124.34"/><polygon class="cls-3" points="120 98.36 109.48 85 109.58 85 120 98.24 120 98.36"/><path class="cls-3" d="M107.77,152l.06.09-20.62-6.61,6.51-14.67,0-.06Zm-.12,0-13.89-21-6.44,14.52Z"/><polygon class="cls-3" points="120 102.53 120 102.62 103.66 112.3 103.58 112.34 109.08 85 109.16 85 103.69 112.19 120 102.53"/><polygon class="cls-3" points="120 98.36 109.48 85 109.58 85 120 98.24 120 98.36"/><polygon class="cls-3" points="107.46 85 86.82 89.49 103.62 112.18 109.08 85 109.16 85 103.67 112.28 103.66 112.36 86.72 89.49 86.69 89.44 107.11 85 107.46 85"/><path class="cls-3" d="M93.78,130.83l0,0L75.23,118.7l-.07,0,28.47-6.43.08,0Zm0-.08,9.83-18.43-28.23,6.37Z"/><path class="cls-3" d="M103.67,112.25l0,0-28.44,6.42-.07,0L86.72,89.45l0-.06Zm-.1,0L86.76,89.54,75.31,118.62Z"/><polygon class="cls-3" points="86.66 85 86.79 89.42 107.11 85 107.46 85 86.76 89.5 86.72 89.52 86.58 85 86.66 85"/><path class="cls-3" d="M93.77,130.78h0l-6.53,14.74-12-26.84-.06-.12Zm-.07,0-18.36-12,11.93,26.56Z"/><path class="cls-3" d="M87.3,145.42l0,0L66.23,150.6l9-31.94,0-.1Zm-.09,0L75.26,118.78l-8.93,31.71Z"/><polygon class="cls-3" points="56.17 85 40.45 105.42 75.19 118.61 62.45 85 62.53 85 75.28 118.66 75.31 118.74 40.38 105.47 40.33 105.45 56.08 85 56.17 85"/><path class="cls-3" d="M75.34,118.67l-36.45,18-.06,0,1.53-31.29v-.05Zm-.18,0L40.43,105.49,38.92,136.6Z"/><polygon class="cls-3" points="62.53 85 75.25 118.57 86.7 89.49 74.87 85 75.08 85 86.77 89.43 86.8 89.45 75.25 118.78 62.45 85 62.53 85"/><polygon class="cls-3" points="75.08 85 86.72 89.41 86.58 85 86.66 85 86.79 89.47 86.79 89.52 74.87 85 75.08 85"/><path class="cls-3" d="M38.91,136.66v.05L19.5,130.6l-.06,0,20.92-25.17.08-.08Zm-.07,0,1.51-31.06-20.78,25Z"/><polygon class="cls-3" points="32.71 85 33.64 96.83 51.82 85 51.95 85 33.63 96.93 33.57 96.97 32.64 85 32.71 85"/><polygon class="cls-3" points="51.95 85 33.66 96.91 40.39 105.38 56.08 85 56.17 85 40.39 105.5 33.58 96.92 33.55 96.89 51.82 85 51.95 85"/><path class="cls-3" d="M40.42,105.41l0,0-20.9,25.15-.07,0,14.1-33.66,0-.06Zm-.07,0L33.62,97l-14,33.38Z"/><polygon class="cls-3" points="22.02 85 33.56 96.8 32.64 85 32.71 85 33.64 96.9 33.65 97 21.92 85 22.02 85"/><polygon class="cls-3" points="0 88.11 0 88.03 33.48 96.83 21.92 85 22.02 85 33.63 96.87 33.73 96.97 0 88.11"/><polygon class="cls-3" points="0 118.61 0 118.52 33.51 96.92 0 88.11 0 88.03 33.62 96.86 33.7 96.89 0 118.61"/><path class="cls-3" d="M107.65,90.41a.36.36,0,1,0-.72,0,.36.36,0,1,0,.72,0Z"/><circle class="cls-3" cx="86.36" cy="108.57" r="0.62"/><path class="cls-3" d="M108.07,90.41a.78.78,0,1,0-.78.78A.78.78,0,0,0,108.07,90.41Z"/><path class="cls-3" d="M108.09,90.41a.81.81,0,1,0-.8.8A.8.8,0,0,0,108.09,90.41Z"/><path class="cls-3" d="M94.86,96.52a.57.57,0,0,0-.57-.56.56.56,0,0,0-.56.56.57.57,0,0,0,.56.57A.58.58,0,0,0,94.86,96.52Z"/><path class="cls-3" d="M86.79,108.57a.43.43,0,0,0-.43-.43.44.44,0,0,0-.44.43.44.44,0,0,0,.44.44A.44.44,0,0,0,86.79,108.57Z"/><path class="cls-3" d="M91.12,86.42a.32.32,0,1,0-.32.32A.32.32,0,0,0,91.12,86.42Z"/><path class="cls-3" d="M107.87,90.41a.59.59,0,1,0-.58.58A.58.58,0,0,0,107.87,90.41Z"/><path class="cls-3" d="M91.93,86.42a1.13,1.13,0,0,0-2.26,0,1.13,1.13,0,0,0,2.26,0Z"/><path class="cls-3" d="M108,90.41a.75.75,0,0,0-.75-.76.76.76,0,1,0,0,1.51A.75.75,0,0,0,108,90.41Z"/><path class="cls-3" d="M91.43,86.42a.63.63,0,0,0-.63-.63.63.63,0,0,0,0,1.26A.63.63,0,0,0,91.43,86.42Z"/><path class="cls-3" d="M95,96.52a.72.72,0,1,0-.72.72A.71.71,0,0,0,95,96.52Z"/><path class="cls-3" d="M77.37,88.91A1.14,1.14,0,1,0,76.23,90,1.14,1.14,0,0,0,77.37,88.91Z"/><path class="cls-3" d="M91.49,86.42a.69.69,0,1,0-.69.69A.69.69,0,0,0,91.49,86.42Z"/><path class="cls-3" d="M76.86,88.91a.63.63,0,1,0-.63.63A.63.63,0,0,0,76.86,88.91Z"/><path class="cls-3" d="M91.66,86.42a.86.86,0,1,0-1.71,0,.85.85,0,0,0,.85.85A.86.86,0,0,0,91.66,86.42Z"/><path class="cls-3" d="M76.9,88.91a.67.67,0,0,0-1.33,0,.67.67,0,0,0,1.33,0Z"/><path class="cls-3" d="M94.54,96.52a.25.25,0,1,0-.25.25A.25.25,0,0,0,94.54,96.52Z"/><path class="cls-3" d="M94.61,96.52a.32.32,0,1,0-.32.32A.32.32,0,0,0,94.61,96.52Z"/><circle class="cls-3" cx="76.23" cy="88.91" r="0.54"/><path class="cls-3" d="M86.81,108.57a.45.45,0,0,0-.45-.45.46.46,0,1,0,0,.91A.45.45,0,0,0,86.81,108.57Z"/><path class="cls-3" d="M76.7,88.91a.47.47,0,0,0-.93,0,.47.47,0,0,0,.93,0Z"/><path class="cls-3" d="M53.51,98.31a.34.34,0,0,0-.68,0,.34.34,0,1,0,.68,0Z"/><path class="cls-3" d="M76.62,88.91a.39.39,0,0,0-.77,0,.39.39,0,1,0,.77,0Z"/><circle class="cls-3" cx="53.17" cy="98.31" r="0.46"/><path class="cls-3" d="M67.06,114.27a.42.42,0,0,0-.42-.42.42.42,0,0,0,0,.84A.42.42,0,0,0,67.06,114.27Z"/><path class="cls-3" d="M76.58,88.91a.35.35,0,0,0-.35-.35.35.35,0,1,0,0,.7A.35.35,0,0,0,76.58,88.91Z"/><path class="cls-3" d="M67.54,114.27a.9.9,0,1,0-1.8,0,.9.9,0,0,0,1.8,0Z"/><path class="cls-3" d="M53.47,98.31a.3.3,0,0,0-.3-.29.3.3,0,0,0,0,.59A.3.3,0,0,0,53.47,98.31Z"/><path class="cls-3" d="M54.72,120.1a.32.32,0,1,0-.32.32A.31.31,0,0,0,54.72,120.1Z"/><path class="cls-3" d="M46.8,97.23a.84.84,0,1,0-.83.84A.84.84,0,0,0,46.8,97.23Z"/><path class="cls-3" d="M47,97.23a1,1,0,1,0-1,1A1,1,0,0,0,47,97.23Z"/><path class="cls-3" d="M53.79,98.31a.62.62,0,1,0-.62.62A.62.62,0,0,0,53.79,98.31Z"/><path class="cls-3" d="M53.56,98.31a.39.39,0,0,0-.78,0,.39.39,0,1,0,.78,0Z"/><path class="cls-3" d="M46.65,97.23a.69.69,0,0,0-1.37,0,.69.69,0,1,0,1.37,0Z"/><path class="cls-3" d="M55,120.1a.63.63,0,1,0-.63.63A.63.63,0,0,0,55,120.1Z"/><path class="cls-3" d="M46.88,97.23a.91.91,0,1,0-.91.91A.91.91,0,0,0,46.88,97.23Z"/><path class="cls-3" d="M20.12,96a.76.76,0,1,0-.76.76A.76.76,0,0,0,20.12,96Z"/><path class="cls-3" d="M46.51,97.23a.54.54,0,0,0-.54-.54.55.55,0,0,0-.55.54.55.55,0,0,0,.55.55A.55.55,0,0,0,46.51,97.23Z"/><path class="cls-3" d="M19.74,96a.38.38,0,1,0-.38.38A.38.38,0,0,0,19.74,96Z"/><path class="cls-3" d="M24.43,109a.34.34,0,1,0-.34.34A.34.34,0,0,0,24.43,109Z"/><path class="cls-3" d="M47,97.23a1,1,0,1,0-1,1A1,1,0,0,0,47,97.23Z"/><path class="cls-3" d="M24.3,109a.21.21,0,1,0-.21.21A.21.21,0,0,0,24.3,109Z"/><path class="cls-3" d="M38.51,128.42a.45.45,0,1,0-.45.44A.45.45,0,0,0,38.51,128.42Z"/><path class="cls-3" d="M20,96a.64.64,0,0,0-.64-.64.64.64,0,0,0,0,1.28A.64.64,0,0,0,20,96Z"/><path class="cls-3" d="M19.65,96a.29.29,0,0,0-.29-.29.3.3,0,0,0-.3.29.31.31,0,0,0,.3.3A.3.3,0,0,0,19.65,96Z"/><path class="cls-3" d="M38.67,128.42a.61.61,0,1,0-.61.6A.61.61,0,0,0,38.67,128.42Z"/><path class="cls-3" d="M24.6,109a.51.51,0,0,0-1,0,.51.51,0,0,0,1,0Z"/><path class="cls-3" d="M16.57,131.9a.41.41,0,1,0-.41.41A.41.41,0,0,0,16.57,131.9Z"/><path class="cls-3" d="M24.43,109a.34.34,0,1,0-.34.34A.34.34,0,0,0,24.43,109Z"/><path class="cls-3" d="M11.6,124.7a.64.64,0,0,0-.63-.64.64.64,0,0,0-.64.64.64.64,0,0,0,.64.63A.63.63,0,0,0,11.6,124.7Z"/><path class="cls-3" d="M16.62,131.9a.46.46,0,1,0-.46.45A.46.46,0,0,0,16.62,131.9Z"/><path class="cls-3" d="M19.77,96a.41.41,0,0,0-.41-.42.42.42,0,0,0,0,.84A.41.41,0,0,0,19.77,96Z"/><path class="cls-3" d="M6.22,102.66a.8.8,0,1,0-.8.8A.8.8,0,0,0,6.22,102.66Z"/><path class="cls-3" d="M20.08,96a.72.72,0,1,0-.72.72A.72.72,0,0,0,20.08,96Z"/><path class="cls-3" d="M6,102.66a.54.54,0,1,0-.53.53A.54.54,0,0,0,6,102.66Z"/><path class="cls-3" d="M24.5,109a.41.41,0,0,0-.41-.41.41.41,0,0,0-.42.41.42.42,0,0,0,.42.42A.41.41,0,0,0,24.5,109Z"/><circle class="cls-3" cx="24.09" cy="108.98" r="0.58"/><path class="cls-3" d="M6.34,102.66a.92.92,0,1,0-.92.92A.93.93,0,0,0,6.34,102.66Z"/><path class="cls-3" d="M11.38,124.7a.42.42,0,0,0-.83,0,.42.42,0,0,0,.83,0Z"/><path class="cls-3" d="M108.32,152a.58.58,0,1,0-.58.58A.58.58,0,0,0,108.32,152Z"/><circle class="cls-3" cx="66.28" cy="150.54" r="0.58"/><path class="cls-3" d="M108.38,152a.64.64,0,0,0-.64-.64.64.64,0,0,0,0,1.28A.64.64,0,0,0,108.38,152Z"/><path class="cls-3" d="M108.23,152a.49.49,0,0,0-.49-.49.49.49,0,0,0,0,1A.49.49,0,0,0,108.23,152Z"/><path class="cls-3" d="M87.92,145.44a.65.65,0,1,0-1.3,0,.65.65,0,1,0,1.3,0Z"/><path class="cls-3" d="M66.92,150.54a.64.64,0,1,0-.64.64A.64.64,0,0,0,66.92,150.54Z"/><path class="cls-3" d="M104.21,112.27a.58.58,0,0,0-.57-.57.57.57,0,1,0,0,1.14A.58.58,0,0,0,104.21,112.27Z"/><path class="cls-3" d="M94,130.81a.26.26,0,1,0-.26.26A.26.26,0,0,0,94,130.81Z"/><circle class="cls-3" cx="107.74" cy="152" r="0.64"/><path class="cls-3" d="M104.24,112.27a.6.6,0,0,0-.6-.6.6.6,0,0,0,0,1.2A.6.6,0,0,0,104.24,112.27Z"/><path class="cls-3" d="M94.09,130.81a.34.34,0,1,0-.34.34A.34.34,0,0,0,94.09,130.81Z"/><path class="cls-3" d="M109.39,85a.41.41,0,0,1-.19,0,.39.39,0,0,1-.18,0Z"/><path class="cls-3" d="M108.5,152a.76.76,0,1,0-.76.76A.76.76,0,0,0,108.5,152Z"/><path class="cls-3" d="M94.71,130.81a1,1,0,1,0-1,1A1,1,0,0,0,94.71,130.81Z"/><path class="cls-3" d="M87.51,145.44a.25.25,0,0,0-.24-.25.24.24,0,0,0-.24.25.24.24,0,0,0,.24.24A.24.24,0,0,0,87.51,145.44Z"/><path class="cls-3" d="M104.24,112.27a.6.6,0,0,0-.6-.6.6.6,0,0,0,0,1.2A.6.6,0,0,0,104.24,112.27Z"/><circle class="cls-3" cx="103.64" cy="112.27" r="0.71"/><path class="cls-3" d="M109.66,85a.65.65,0,0,1-.46.2.61.61,0,0,1-.45-.2Z"/><path class="cls-3" d="M87,89.47a.28.28,0,0,0-.28-.27.27.27,0,0,0,0,.54A.28.28,0,0,0,87,89.47Z"/><path class="cls-3" d="M104.59,112.27a1,1,0,1,0-1,1A.95.95,0,0,0,104.59,112.27Z"/><path class="cls-3" d="M76.21,118.67a1,1,0,1,0-1,1A1,1,0,0,0,76.21,118.67Z"/><path class="cls-3" d="M94.39,130.81a.64.64,0,0,0-.64-.64.64.64,0,0,0-.63.64.63.63,0,0,0,.63.63A.64.64,0,0,0,94.39,130.81Z"/><path class="cls-3" d="M104.24,112.27a.6.6,0,1,0-.6.6A.6.6,0,0,0,104.24,112.27Z"/><path class="cls-3" d="M87.56,89.47a.81.81,0,1,0-.81.8A.81.81,0,0,0,87.56,89.47Z"/><path class="cls-3" d="M75.61,118.67a.36.36,0,1,0-.36.36A.36.36,0,0,0,75.61,118.67Z"/><path class="cls-3" d="M87.47,89.47a.72.72,0,1,0-.72.72A.72.72,0,0,0,87.47,89.47Z"/><path class="cls-3" d="M94.38,130.81a.63.63,0,1,0-.63.63A.63.63,0,0,0,94.38,130.81Z"/><circle class="cls-3" cx="75.25" cy="118.67" r="0.5"/><path class="cls-3" d="M87.66,145.44a.4.4,0,0,0-.39-.4.4.4,0,0,0,0,.79A.4.4,0,0,0,87.66,145.44Z"/><path class="cls-3" d="M87.45,145.44a.18.18,0,0,0-.18-.19.18.18,0,0,0-.19.19.18.18,0,0,0,.19.18A.18.18,0,0,0,87.45,145.44Z"/><path class="cls-3" d="M76.08,118.67a.83.83,0,1,0-.83.83A.83.83,0,0,0,76.08,118.67Z"/><path class="cls-3" d="M67.11,150.54a.83.83,0,1,0-1.66,0,.83.83,0,1,0,1.66,0Z"/><path class="cls-3" d="M75.62,118.67a.37.37,0,1,0-.37.37A.37.37,0,0,0,75.62,118.67Z"/><path class="cls-3" d="M40.93,105.44a.54.54,0,1,0-.54.53A.54.54,0,0,0,40.93,105.44Z"/><path class="cls-3" d="M76.1,118.67a.85.85,0,1,0-.85.85A.85.85,0,0,0,76.1,118.67Z"/><path class="cls-3" d="M40.66,105.44a.27.27,0,1,0-.53,0,.27.27,0,0,0,.53,0Z"/><path class="cls-3" d="M39.54,136.66a.67.67,0,1,0-.66.67A.67.67,0,0,0,39.54,136.66Z"/><path class="cls-3" d="M87.92,89.47a1.17,1.17,0,1,0-1.17,1.17A1.17,1.17,0,0,0,87.92,89.47Z"/><path class="cls-3" d="M75.87,118.67a.62.62,0,0,0-1.24,0,.62.62,0,1,0,1.24,0Z"/><path class="cls-3" d="M87.22,89.47a.47.47,0,1,0-.93,0,.47.47,0,0,0,.93,0Z"/><path class="cls-3" d="M39.48,136.66a.61.61,0,1,0-.6.61A.6.6,0,0,0,39.48,136.66Z"/><path class="cls-3" d="M40.63,105.44a.24.24,0,0,0-.24-.24.23.23,0,0,0-.23.24.23.23,0,0,0,.23.23A.23.23,0,0,0,40.63,105.44Z"/><circle class="cls-3" cx="19.51" cy="130.56" r="0.38"/><path class="cls-3" d="M34.16,96.9a.56.56,0,1,0-.55.55A.55.55,0,0,0,34.16,96.9Z"/><path class="cls-3" d="M34.06,96.9a.46.46,0,1,0-.45.45A.45.45,0,0,0,34.06,96.9Z"/><path class="cls-3" d="M41.37,105.44a1,1,0,1,0-1,1A1,1,0,0,0,41.37,105.44Z"/><path class="cls-3" d="M41.27,105.44a.88.88,0,1,0-.88.88A.88.88,0,0,0,41.27,105.44Z"/><path class="cls-3" d="M33.91,96.9a.31.31,0,1,0-.3.3A.3.3,0,0,0,33.91,96.9Z"/><path class="cls-3" d="M20.16,130.56a.65.65,0,0,0-.65-.65.66.66,0,0,0-.66.65.67.67,0,0,0,.66.66A.66.66,0,0,0,20.16,130.56Z"/><path class="cls-3" d="M34,96.9a.39.39,0,1,0-.38.39A.39.39,0,0,0,34,96.9Z"/><path class="cls-3" d="M34,96.9a.39.39,0,1,0-.38.38A.38.38,0,0,0,34,96.9Z"/><path class="cls-3" d="M34.19,96.9a.59.59,0,1,0-.58.59A.59.59,0,0,0,34.19,96.9Z"/></g></g></svg>